<svg xmlns="http://www.w3.org/2000/svg" xmlns:xlink="http://www.w3.org/1999/xlink" contentStyleType="text/css" data-diagram-type="CLASS" height="754px" preserveAspectRatio="none" style="width:2650px;height:754px;background:#FFFFFF;" version="1.1" viewBox="0 0 2650 754" width="2650px" zoomAndPan="magnify"><defs/><g><!--class ReviewRegistrationUI--><g class="entity" data-entity="ReviewRegistrationUI" data-source-line="6" data-uid="ent0002" id="entity_ReviewRegistrationUI"><rect fill="#F1F1F1" height="48" rx="2.5" ry="2.5" style="stroke:#181818;stroke-width:0.5;" width="173.2175" x="618.64" y="45.13"/><ellipse cx="633.64" cy="61.13" fill="#ADD1B2" rx="11" ry="11" style="stroke:#181818;stroke-width:1;"/><path d="M633.1088,68.0519 Q631.3588,68.0519 630.2181,67.3175 Q629.0931,66.5675 628.5306,65.2238 Q627.9838,63.8644 627.9838,62.0675 Q627.9838,60.0362 628.64,58.5831 Q629.2963,57.13 630.5775,56.3487 Q631.8588,55.5675 633.7338,55.5675 Q634.6244,55.5675 635.2963,55.755 Q635.9681,55.9269 636.6556,56.2706 L635.8431,58.2862 Q635.2181,57.9737 634.6713,57.8487 Q634.14,57.7237 633.6556,57.7237 Q632.4838,57.7237 631.7806,58.255 Q631.0775,58.7862 630.7806,59.7394 Q630.4838,60.6925 630.4838,61.9581 Q630.4838,63.9737 631.2025,64.9425 Q631.9213,65.8956 633.515,65.8956 Q634.1088,65.8956 634.7338,65.7394 Q635.3588,65.5831 636.1869,65.2081 L636.1869,67.4269 Q635.4525,67.7394 634.6556,67.8956 Q633.8744,68.0519 633.1088,68.0519 Z " fill="#000000"/><text fill="#000000" font-family="sans-serif" font-size="14" lengthAdjust="spacing" textLength="141.2175" x="647.64" y="66.562">ReviewRegistrationUI</text><line style="stroke:#181818;stroke-width:0.5;" x1="619.64" x2="790.8575" y1="77.13" y2="77.13"/><line style="stroke:#181818;stroke-width:0.5;" x1="619.64" x2="790.8575" y1="85.13" y2="85.13"/></g><!--class ReviewRegistrationController--><g class="entity" data-entity="ReviewRegistrationController" data-source-line="9" data-uid="ent0003" id="entity_ReviewRegistrationController"><rect fill="#F1F1F1" height="124.2717" rx="2.5" ry="2.5" style="stroke:#181818;stroke-width:0.5;" width="456.0643" x="827.22" y="7"/><ellipse cx="954.7945" cy="23" fill="#ADD1B2" rx="11" ry="11" style="stroke:#181818;stroke-width:1;"/><path d="M954.2633,29.9219 Q952.5133,29.9219 951.3727,29.1875 Q950.2477,28.4375 949.6852,27.0938 Q949.1383,25.7344 949.1383,23.9375 Q949.1383,21.9063 949.7945,20.4531 Q950.4508,19 951.732,18.2188 Q953.0133,17.4375 954.8883,17.4375 Q955.7789,17.4375 956.4508,17.625 Q957.1227,17.7969 957.8102,18.1406 L956.9977,20.1563 Q956.3727,19.8438 955.8258,19.7188 Q955.2945,19.5938 954.8102,19.5938 Q953.6383,19.5938 952.9352,20.125 Q952.232,20.6563 951.9352,21.6094 Q951.6383,22.5625 951.6383,23.8281 Q951.6383,25.8438 952.357,26.8125 Q953.0758,27.7656 954.6695,27.7656 Q955.2633,27.7656 955.8883,27.6094 Q956.5133,27.4531 957.3414,27.0781 L957.3414,29.2969 Q956.607,29.6094 955.8102,29.7656 Q955.0289,29.9219 954.2633,29.9219 Z " fill="#000000"/><text fill="#000000" font-family="sans-serif" font-size="14" lengthAdjust="spacing" textLength="192.4153" x="975.2945" y="28.432">ReviewRegistrationController</text><line style="stroke:#181818;stroke-width:0.5;" x1="828.22" x2="1282.2843" y1="39" y2="39"/><line style="stroke:#181818;stroke-width:0.5;" x1="828.22" x2="1282.2843" y1="47" y2="47"/><text fill="#000000" font-family="sans-serif" font-size="14" lengthAdjust="spacing" textLength="208.8232" x="833.22" y="65.9659">+ReviewRegistrationController()</text><text fill="#000000" font-family="sans-serif" font-size="14" lengthAdjust="spacing" textLength="335.9847" x="833.22" y="85.0339">+getPendingRequests() : List&lt;RegistrationRequest&gt;</text><text fill="#000000" font-family="sans-serif" font-size="14" lengthAdjust="spacing" textLength="358.2586" x="833.22" y="104.1018">+approveRequest(request : RegistrationRequest) : void</text><text fill="#000000" font-family="sans-serif" font-size="14" lengthAdjust="spacing" textLength="444.0643" x="833.22" y="123.1697">+rejectRequest(request : RegistrationRequest, reason : String) : void</text></g><!--class RegistrationRequest--><g class="entity" data-entity="RegistrationRequest" data-source-line="16" data-uid="ent0004" id="entity_RegistrationRequest"><rect fill="#F1F1F1" height="314.9508" rx="2.5" ry="2.5" style="stroke:#181818;stroke-width:0.5;" width="223.0212" x="60.74" y="210.27"/><ellipse cx="101.6104" cy="226.27" fill="#ADD1B2" rx="11" ry="11" style="stroke:#181818;stroke-width:1;"/><path d="M101.0791,233.1919 Q99.3291,233.1919 98.1885,232.4575 Q97.0635,231.7075 96.501,230.3637 Q95.9541,229.0044 95.9541,227.2075 Q95.9541,225.1762 96.6104,223.7231 Q97.2666,222.27 98.5479,221.4887 Q99.8291,220.7075 101.7041,220.7075 Q102.5948,220.7075 103.2666,220.895 Q103.9385,221.0669 104.626,221.4106 L103.8135,223.4262 Q103.1885,223.1137 102.6416,222.9887 Q102.1104,222.8637 101.626,222.8637 Q100.4541,222.8637 99.751,223.395 Q99.0479,223.9262 98.751,224.8794 Q98.4541,225.8325 98.4541,227.0981 Q98.4541,229.1137 99.1729,230.0825 Q99.8916,231.0356 101.4854,231.0356 Q102.0791,231.0356 102.7041,230.8794 Q103.3291,230.7231 104.1573,230.3481 L104.1573,232.5669 Q103.4229,232.8794 102.626,233.0356 Q101.8448,233.1919 101.0791,233.1919 Z " fill="#000000"/><text fill="#000000" font-family="sans-serif" font-size="14" lengthAdjust="spacing" textLength="133.5315" x="121.3594" y="231.702">RegistrationRequest</text><line style="stroke:#181818;stroke-width:0.5;" x1="61.74" x2="282.7612" y1="242.27" y2="242.27"/><text fill="#000000" font-family="sans-serif" font-size="14" lengthAdjust="spacing" textLength="115.1075" x="66.74" y="261.2359">-fullName : String</text><text fill="#000000" font-family="sans-serif" font-size="14" lengthAdjust="spacing" textLength="90.9996" x="66.74" y="280.3039">-email : String</text><text fill="#000000" font-family="sans-serif" font-size="14" lengthAdjust="spacing" textLength="118.6776" x="66.74" y="299.3718">-password : String</text><text fill="#000000" font-family="sans-serif" font-size="14" lengthAdjust="spacing" textLength="209.9152" x="66.74" y="318.4397">-identificationDocument : String</text><text fill="#000000" font-family="sans-serif" font-size="14" lengthAdjust="spacing" textLength="152.4034" x="66.74" y="337.5076">-submissionDate : Date</text><text fill="#000000" font-family="sans-serif" font-size="14" lengthAdjust="spacing" textLength="176.5814" x="66.74" y="356.5755">-status : RegistrationStatus</text><text fill="#000000" font-family="sans-serif" font-size="14" lengthAdjust="spacing" textLength="160.9154" x="66.74" y="375.6434">-rejectionReason : String</text><line style="stroke:#181818;stroke-width:0.5;" x1="61.74" x2="282.7612" y1="383.7454" y2="383.7454"/><text fill="#000000" font-family="sans-serif" font-size="14" lengthAdjust="spacing" textLength="109.5776" x="66.74" y="402.7114">+approve() : void</text><text fill="#000000" font-family="sans-serif" font-size="14" lengthAdjust="spacing" textLength="187.9913" x="66.74" y="421.7793">+reject(reason : String) : void</text><text fill="#000000" font-family="sans-serif" font-size="14" lengthAdjust="spacing" textLength="151.0174" x="66.74" y="440.8472">+getFullName() : String</text><text fill="#000000" font-family="sans-serif" font-size="14" lengthAdjust="spacing" textLength="124.3475" x="66.74" y="459.9151">+getEmail() : String</text><text fill="#000000" font-family="sans-serif" font-size="14" lengthAdjust="spacing" textLength="151.9974" x="66.74" y="478.983">+getPassword() : String</text><text fill="#000000" font-family="sans-serif" font-size="14" lengthAdjust="spacing" textLength="136.9895" x="66.74" y="498.0509">+getRole() : UserRole</text><text fill="#000000" font-family="sans-serif" font-size="14" lengthAdjust="spacing" textLength="211.0212" x="66.74" y="517.1189">+getStatus() : RegistrationStatus</text></g><!--class RegistrationRequestRepository--><g class="entity" data-entity="RegistrationRequestRepository" data-source-line="33" data-uid="ent0005" id="entity_RegistrationRequestRepository"><rect fill="#F1F1F1" height="67.0679" rx="2.5" ry="2.5" style="stroke:#181818;stroke-width:0.5;" width="347.9847" x="1789.26" y="334.21"/><ellipse cx="1857.0127" cy="350.21" fill="#ADD1B2" rx="11" ry="11" style="stroke:#181818;stroke-width:1;"/><path d="M1856.4815,357.1319 Q1854.7315,357.1319 1853.5908,356.3975 Q1852.4658,355.6475 1851.9033,354.3037 Q1851.3565,352.9444 1851.3565,351.1475 Q1851.3565,349.1162 1852.0127,347.6631 Q1852.669,346.21 1853.9502,345.4287 Q1855.2315,344.6475 1857.1065,344.6475 Q1857.9971,344.6475 1858.669,344.835 Q1859.3408,345.0069 1860.0283,345.3506 L1859.2158,347.3662 Q1858.5908,347.0537 1858.044,346.9287 Q1857.5127,346.8037 1857.0283,346.8037 Q1855.8565,346.8037 1855.1533,347.335 Q1854.4502,347.8662 1854.1533,348.8194 Q1853.8565,349.7725 1853.8565,351.0381 Q1853.8565,353.0537 1854.5752,354.0225 Q1855.294,354.9756 1856.8877,354.9756 Q1857.4815,354.9756 1858.1065,354.8194 Q1858.7315,354.6631 1859.5596,354.2881 L1859.5596,356.5069 Q1858.8252,356.8194 1858.0283,356.9756 Q1857.2471,357.1319 1856.4815,357.1319 Z " fill="#000000"/><text fill="#000000" font-family="sans-serif" font-size="14" lengthAdjust="spacing" textLength="203.9792" x="1877.5127" y="355.642">RegistrationRequestRepository</text><line style="stroke:#181818;stroke-width:0.5;" x1="1790.26" x2="2136.2447" y1="366.21" y2="366.21"/><line style="stroke:#181818;stroke-width:0.5;" x1="1790.26" x2="2136.2447" y1="374.21" y2="374.21"/><text fill="#000000" font-family="sans-serif" font-size="14" lengthAdjust="spacing" textLength="335.9847" x="1795.26" y="393.1759">+getPendingRequests() : List&lt;RegistrationRequest&gt;</text></g><!--class AuthenticationRepository--><g class="entity" data-entity="AuthenticationRepository" data-source-line="37" data-uid="ent0006" id="entity_AuthenticationRepository"><rect fill="#F1F1F1" height="67.0679" rx="2.5" ry="2.5" style="stroke:#181818;stroke-width:0.5;" width="582.2601" x="1172.12" y="334.21"/><ellipse cx="1375.3364" cy="350.21" fill="#ADD1B2" rx="11" ry="11" style="stroke:#181818;stroke-width:1;"/><path d="M1374.8051,357.1319 Q1373.0551,357.1319 1371.9145,356.3975 Q1370.7895,355.6475 1370.227,354.3037 Q1369.6801,352.9444 1369.6801,351.1475 Q1369.6801,349.1162 1370.3364,347.6631 Q1370.9926,346.21 1372.2739,345.4287 Q1373.5551,344.6475 1375.4301,344.6475 Q1376.3207,344.6475 1376.9926,344.835 Q1377.6645,345.0069 1378.352,345.3506 L1377.5395,347.3662 Q1376.9145,347.0537 1376.3676,346.9287 Q1375.8364,346.8037 1375.352,346.8037 Q1374.1801,346.8037 1373.477,347.335 Q1372.7739,347.8662 1372.477,348.8194 Q1372.1801,349.7725 1372.1801,351.0381 Q1372.1801,353.0537 1372.8989,354.0225 Q1373.6176,354.9756 1375.2114,354.9756 Q1375.8051,354.9756 1376.4301,354.8194 Q1377.0551,354.6631 1377.8832,354.2881 L1377.8832,356.5069 Q1377.1489,356.8194 1376.352,356.9756 Q1375.5707,357.1319 1374.8051,357.1319 Z " fill="#000000"/><text fill="#000000" font-family="sans-serif" font-size="14" lengthAdjust="spacing" textLength="167.3274" x="1395.8364" y="355.642">AuthenticationRepository</text><line style="stroke:#181818;stroke-width:0.5;" x1="1173.12" x2="1753.3801" y1="366.21" y2="366.21"/><line style="stroke:#181818;stroke-width:0.5;" x1="1173.12" x2="1753.3801" y1="374.21" y2="374.21"/><text fill="#000000" font-family="sans-serif" font-size="14" lengthAdjust="spacing" textLength="570.2601" x="1178.12" y="393.1759">+addUserWithRole(name : String, email : String, password : String, roleId : String) : void</text></g><!--class Repositories--><g class="entity" data-entity="Repositories" data-source-line="41" data-uid="ent0007" id="entity_Repositories"><rect fill="#F1F1F1" height="124.2717" rx="2.5" ry="2.5" style="stroke:#181818;stroke-width:0.5;" width="468.9583" x="1318.77" y="7"/><ellipse cx="1508.2383" cy="23" fill="#ADD1B2" rx="11" ry="11" style="stroke:#181818;stroke-width:1;"/><path d="M1507.7071,29.9219 Q1505.9571,29.9219 1504.8164,29.1875 Q1503.6914,28.4375 1503.1289,27.0938 Q1502.5821,25.7344 1502.5821,23.9375 Q1502.5821,21.9063 1503.2383,20.4531 Q1503.8946,19 1505.1758,18.2188 Q1506.4571,17.4375 1508.3321,17.4375 Q1509.2227,17.4375 1509.8946,17.625 Q1510.5664,17.7969 1511.2539,18.1406 L1510.4414,20.1563 Q1509.8164,19.8438 1509.2696,19.7188 Q1508.7383,19.5938 1508.2539,19.5938 Q1507.0821,19.5938 1506.3789,20.125 Q1505.6758,20.6563 1505.3789,21.6094 Q1505.0821,22.5625 1505.0821,23.8281 Q1505.0821,25.8438 1505.8008,26.8125 Q1506.5196,27.7656 1508.1133,27.7656 Q1508.7071,27.7656 1509.3321,27.6094 Q1509.9571,27.4531 1510.7852,27.0781 L1510.7852,29.2969 Q1510.0508,29.6094 1509.2539,29.7656 Q1508.4727,29.9219 1507.7071,29.9219 Z " fill="#000000"/><text fill="#000000" font-family="sans-serif" font-size="14" lengthAdjust="spacing" textLength="81.5217" x="1528.7383" y="28.432">Repositories</text><line style="stroke:#181818;stroke-width:0.5;" x1="1319.77" x2="1786.7283" y1="39" y2="39"/><line style="stroke:#181818;stroke-width:0.5;" x1="1319.77" x2="1786.7283" y1="47" y2="47"/><text fill="#000000" font-family="sans-serif" font-size="14" lengthAdjust="spacing" textLength="94.4296" x="1324.77" y="65.9659">-Repositories()</text><text fill="#000000" font-family="sans-serif" font-size="14" lengthAdjust="spacing" text-decoration="underline" textLength="186.8013" x="1324.77" y="85.0339">+getInstance() : Repositories</text><text fill="#000000" font-family="sans-serif" font-size="14" lengthAdjust="spacing" textLength="456.9583" x="1324.77" y="104.1018">+getRegistrationRequestRepository() : RegistrationRequestRepository</text><text fill="#000000" font-family="sans-serif" font-size="14" lengthAdjust="spacing" textLength="383.6545" x="1324.77" y="123.1697">+getAuthenticationRepository() : AuthenticationRepository</text></g><!--class EmailService--><g class="entity" data-entity="EmailService" data-source-line="48" data-uid="ent0008" id="entity_EmailService"><rect fill="#F1F1F1" height="67.0679" rx="2.5" ry="2.5" style="stroke:#181818;stroke-width:0.5;" width="471.2963" x="688.6" y="642.36"/><ellipse cx="881.1343" cy="658.36" fill="#B4A7E5" rx="11" ry="11" style="stroke:#181818;stroke-width:1;"/><path d="M877.1656,664.86 L877.1656,663.1569 L879.5249,662.8912 L879.5249,654.6881 L877.1656,654.4225 L877.1656,652.7194 L884.3062,652.7194 L884.3062,654.4225 L881.8843,654.6881 L881.8843,662.8912 L884.3062,663.1569 L884.3062,664.86 L877.1656,664.86 Z " fill="#000000"/><text fill="#000000" font-family="sans-serif" font-size="14" font-style="italic" lengthAdjust="spacing" textLength="77.7277" x="901.6343" y="663.792">EmailService</text><line style="stroke:#181818;stroke-width:0.5;" x1="689.6" x2="1158.8963" y1="674.36" y2="674.36"/><line style="stroke:#181818;stroke-width:0.5;" x1="689.6" x2="1158.8963" y1="682.36" y2="682.36"/><text fill="#000000" font-family="sans-serif" font-size="14" lengthAdjust="spacing" textLength="459.2963" x="694.6" y="701.3259">+sendNotification(toEmail : String, subject : String, body : String) : void</text></g><!--class GmailEmailService--><g class="entity" data-entity="GmailEmailService" data-source-line="52" data-uid="ent0009" id="entity_GmailEmailService"><rect fill="#F1F1F1" height="67.0679" rx="2.5" ry="2.5" style="stroke:#181818;stroke-width:0.5;" width="471.2963" x="2172.6" y="334.21"/><ellipse cx="2343.4904" cy="350.21" fill="#ADD1B2" rx="11" ry="11" style="stroke:#181818;stroke-width:1;"/><path d="M2342.9592,357.1319 Q2341.2092,357.1319 2340.0685,356.3975 Q2338.9435,355.6475 2338.381,354.3037 Q2337.8342,352.9444 2337.8342,351.1475 Q2337.8342,349.1162 2338.4904,347.6631 Q2339.1467,346.21 2340.4279,345.4287 Q2341.7092,344.6475 2343.5842,344.6475 Q2344.4748,344.6475 2345.1467,344.835 Q2345.8185,345.0069 2346.506,345.3506 L2345.6935,347.3662 Q2345.0685,347.0537 2344.5217,346.9287 Q2343.9904,346.8037 2343.506,346.8037 Q2342.3342,346.8037 2341.631,347.335 Q2340.9279,347.8662 2340.631,348.8194 Q2340.3342,349.7725 2340.3342,351.0381 Q2340.3342,353.0537 2341.0529,354.0225 Q2341.7717,354.9756 2343.3654,354.9756 Q2343.9592,354.9756 2344.5842,354.8194 Q2345.2092,354.6631 2346.0373,354.2881 L2346.0373,356.5069 Q2345.3029,356.8194 2344.506,356.9756 Q2343.7248,357.1319 2342.9592,357.1319 Z " fill="#000000"/><text fill="#000000" font-family="sans-serif" font-size="14" lengthAdjust="spacing" textLength="121.0155" x="2363.9904" y="355.642">GmailEmailService</text><line style="stroke:#181818;stroke-width:0.5;" x1="2173.6" x2="2642.8963" y1="366.21" y2="366.21"/><line style="stroke:#181818;stroke-width:0.5;" x1="2173.6" x2="2642.8963" y1="374.21" y2="374.21"/><text fill="#000000" font-family="sans-serif" font-size="14" lengthAdjust="spacing" textLength="459.2963" x="2178.6" y="393.1759">+sendNotification(toEmail : String, subject : String, body : String) : void</text></g><!--class DeiEmailService--><g class="entity" data-entity="DeiEmailService" data-source-line="56" data-uid="ent0010" id="entity_DeiEmailService"><rect fill="#F1F1F1" height="67.0679" rx="2.5" ry="2.5" style="stroke:#181818;stroke-width:0.5;" width="471.2963" x="318.6" y="334.21"/><ellipse cx="497.8064" cy="350.21" fill="#ADD1B2" rx="11" ry="11" style="stroke:#181818;stroke-width:1;"/><path d="M497.2751,357.1319 Q495.5251,357.1319 494.3845,356.3975 Q493.2595,355.6475 492.697,354.3037 Q492.1501,352.9444 492.1501,351.1475 Q492.1501,349.1162 492.8064,347.6631 Q493.4626,346.21 494.7439,345.4287 Q496.0251,344.6475 497.9001,344.6475 Q498.7908,344.6475 499.4626,344.835 Q500.1345,345.0069 500.822,345.3506 L500.0095,347.3662 Q499.3845,347.0537 498.8376,346.9287 Q498.3064,346.8037 497.822,346.8037 Q496.6501,346.8037 495.947,347.335 Q495.2439,347.8662 494.947,348.8194 Q494.6501,349.7725 494.6501,351.0381 Q494.6501,353.0537 495.3689,354.0225 Q496.0876,354.9756 497.6814,354.9756 Q498.2751,354.9756 498.9001,354.8194 Q499.5251,354.6631 500.3533,354.2881 L500.3533,356.5069 Q499.6189,356.8194 498.822,356.9756 Q498.0408,357.1319 497.2751,357.1319 Z " fill="#000000"/><text fill="#000000" font-family="sans-serif" font-size="14" lengthAdjust="spacing" textLength="104.3836" x="518.3064" y="355.642">DeiEmailService</text><line style="stroke:#181818;stroke-width:0.5;" x1="319.6" x2="788.8963" y1="366.21" y2="366.21"/><line style="stroke:#181818;stroke-width:0.5;" x1="319.6" x2="788.8963" y1="374.21" y2="374.21"/><text fill="#000000" font-family="sans-serif" font-size="14" lengthAdjust="spacing" textLength="459.2963" x="324.6" y="393.1759">+sendNotification(toEmail : String, subject : String, body : String) : void</text></g><!--class EmailServiceFactory--><g class="entity" data-entity="EmailServiceFactory" data-source-line="60" data-uid="ent0011" id="entity_EmailServiceFactory"><rect fill="#F1F1F1" height="67.0679" rx="2.5" ry="2.5" style="stroke:#181818;stroke-width:0.5;" width="163.2974" x="973.6" y="334.21"/><ellipse cx="988.7602" cy="350.21" fill="#ADD1B2" rx="11" ry="11" style="stroke:#181818;stroke-width:1;"/><path d="M988.2289,357.1319 Q986.4789,357.1319 985.3383,356.3975 Q984.2133,355.6475 983.6508,354.3037 Q983.1039,352.9444 983.1039,351.1475 Q983.1039,349.1162 983.7602,347.6631 Q984.4164,346.21 985.6977,345.4287 Q986.9789,344.6475 988.8539,344.6475 Q989.7445,344.6475 990.4164,344.835 Q991.0883,345.0069 991.7758,345.3506 L990.9633,347.3662 Q990.3383,347.0537 989.7914,346.9287 Q989.2602,346.8037 988.7758,346.8037 Q987.6039,346.8037 986.9008,347.335 Q986.1977,347.8662 985.9008,348.8194 Q985.6039,349.7725 985.6039,351.0381 Q985.6039,353.0537 986.3227,354.0225 Q987.0414,354.9756 988.6352,354.9756 Q989.2289,354.9756 989.8539,354.8194 Q990.4789,354.6631 991.307,354.2881 L991.307,356.5069 Q990.5727,356.8194 989.7758,356.9756 Q988.9945,357.1319 988.2289,357.1319 Z " fill="#000000"/><text fill="#000000" font-family="sans-serif" font-size="14" lengthAdjust="spacing" textLength="130.9415" x="1002.7957" y="355.642">EmailServiceFactory</text><line style="stroke:#181818;stroke-width:0.5;" x1="974.6" x2="1135.8974" y1="366.21" y2="366.21"/><line style="stroke:#181818;stroke-width:0.5;" x1="974.6" x2="1135.8974" y1="374.21" y2="374.21"/><text fill="#000000" font-family="sans-serif" font-size="14" lengthAdjust="spacing" text-decoration="underline" textLength="151.2974" x="979.6" y="393.1759">+create() : EmailService</text></g><!--class UserRole--><g class="entity" data-entity="UserRole" data-source-line="64" data-uid="ent0012" id="entity_UserRole"><rect fill="#F1F1F1" height="143.3396" rx="2.5" ry="2.5" style="stroke:#181818;stroke-width:0.5;" width="146.4975" x="7" y="604.22"/><ellipse cx="46.8372" cy="620.22" fill="#EB937F" rx="11" ry="11" style="stroke:#181818;stroke-width:1;"/><path d="M43.1965,626.72 L43.1965,614.5794 L50.8528,614.5794 L50.8528,616.7044 L45.5715,616.7044 L45.5715,619.3606 L50.5872,619.3606 L50.5872,621.4856 L45.5715,621.4856 L45.5715,624.595 L50.8528,624.595 L50.8528,626.72 L43.1965,626.72 Z " fill="#000000"/><text fill="#000000" font-family="sans-serif" font-size="14" lengthAdjust="spacing" textLength="59.3038" x="66.3565" y="625.652">UserRole</text><line style="stroke:#181818;stroke-width:0.5;" x1="8" x2="152.4975" y1="636.22" y2="636.22"/><text fill="#000000" font-family="sans-serif" font-size="14" lengthAdjust="spacing" textLength="120.7075" x="13" y="655.1859">POLITICAL_AGENT</text><text fill="#000000" font-family="sans-serif" font-size="14" lengthAdjust="spacing" textLength="52.5558" x="13" y="674.2539">CITIZEN</text><text fill="#000000" font-family="sans-serif" font-size="14" lengthAdjust="spacing" textLength="80.8357" x="13" y="693.3218">JOURNALIST</text><text fill="#000000" font-family="sans-serif" font-size="14" lengthAdjust="spacing" textLength="134.4975" x="13" y="712.3897">ETHICS_COMMITTEE</text><text fill="#000000" font-family="sans-serif" font-size="14" lengthAdjust="spacing" textLength="112.5456" x="13" y="731.4576">ADMINISTRATOR</text><line style="stroke:#181818;stroke-width:0.5;" x1="8" x2="152.4975" y1="739.5596" y2="739.5596"/></g><!--class RegistrationStatus--><g class="entity" data-entity="RegistrationStatus" data-source-line="72" data-uid="ent0013" id="entity_RegistrationStatus"><rect fill="#F1F1F1" height="105.2038" rx="2.5" ry="2.5" style="stroke:#181818;stroke-width:0.5;" width="153.0156" x="188.74" y="623.29"/><ellipse cx="203.74" cy="639.29" fill="#EB937F" rx="11" ry="11" style="stroke:#181818;stroke-width:1;"/><path d="M200.0994,645.79 L200.0994,633.6494 L207.7556,633.6494 L207.7556,635.7744 L202.4744,635.7744 L202.4744,638.4306 L207.49,638.4306 L207.49,640.5556 L202.4744,640.5556 L202.4744,643.665 L207.7556,643.665 L207.7556,645.79 L200.0994,645.79 Z " fill="#000000"/><text fill="#000000" font-family="sans-serif" font-size="14" lengthAdjust="spacing" textLength="121.0156" x="217.74" y="644.722">RegistrationStatus</text><line style="stroke:#181818;stroke-width:0.5;" x1="189.74" x2="340.7556" y1="655.29" y2="655.29"/><text fill="#000000" font-family="sans-serif" font-size="14" lengthAdjust="spacing" textLength="62.6917" x="194.74" y="674.2559">PENDING</text><text fill="#000000" font-family="sans-serif" font-size="14" lengthAdjust="spacing" textLength="71.9317" x="194.74" y="693.3239">APPROVED</text><text fill="#000000" font-family="sans-serif" font-size="14" lengthAdjust="spacing" textLength="62.7337" x="194.74" y="712.3918">REJECTED</text><line style="stroke:#181818;stroke-width:0.5;" x1="189.74" x2="340.7556" y1="720.4938" y2="720.4938"/></g><!--link ReviewRegistrationUI to ReviewRegistrationController--><g class="link" data-entity-1="ReviewRegistrationUI" data-entity-2="ReviewRegistrationController" data-source-line="78" data-uid="lnk14" id="link_ReviewRegistrationUI_ReviewRegistrationController"><path codeLine="78" d="M792.17,69.13 C809.2,69.13 821.92,69.13 821.92,69.13 C821.92,69.13 817.74,69.13 820.93,69.13" fill="none" id="ReviewRegistrationUI-to-ReviewRegistrationController" style="stroke:#181818;stroke-width:1;stroke-dasharray:7,7;"/><polygon fill="#181818" points="826.93,69.13,817.93,65.13,821.93,69.13,817.93,73.13,826.93,69.13" style="stroke:#181818;stroke-width:1;"/></g><!--link ReviewRegistrationController to Repositories--><g class="link" data-entity-1="ReviewRegistrationController" data-entity-2="Repositories" data-source-line="79" data-uid="lnk15" id="link_ReviewRegistrationController_Repositories"><path codeLine="79" d="M1283.53,69.13 C1294.94,69.13 1300.91,69.13 1312.49,69.13" fill="none" id="ReviewRegistrationController-to-Repositories" style="stroke:#181818;stroke-width:1;stroke-dasharray:7,7;"/><polygon fill="#181818" points="1318.49,69.13,1309.49,65.13,1313.49,69.13,1309.49,73.13,1318.49,69.13" style="stroke:#181818;stroke-width:1;"/></g><!--link ReviewRegistrationController to RegistrationRequestRepository--><g class="link" data-entity-1="ReviewRegistrationController" data-entity-2="RegistrationRequestRepository" data-source-line="80" data-uid="lnk16" id="link_ReviewRegistrationController_RegistrationRequestRepository"><path codeLine="80" d="M1283.56,126.87 C1294.63,129.62 1301.25,131.27 1301.25,131.27 C1301.25,131.27 1513.25,180.27 1513.25,180.27 C1513.25,180.27 1772.25,210.27 1772.25,210.27 C1772.25,210.27 1862.5584,284.2579 1918.5684,330.1379" fill="none" id="ReviewRegistrationController-to-RegistrationRequestRepository" style="stroke:#181818;stroke-width:1;stroke-dasharray:7,7;"/><polygon fill="#181818" points="1923.21,333.94,1918.7824,325.1425,1919.342,330.7716,1913.7129,331.3312,1923.21,333.94" style="stroke:#181818;stroke-width:1;"/></g><!--link ReviewRegistrationController to AuthenticationRepository--><g class="link" data-entity-1="ReviewRegistrationController" data-entity-2="AuthenticationRepository" data-source-line="81" data-uid="lnk17" id="link_ReviewRegistrationController_AuthenticationRepository"><path codeLine="81" d="M1139.79,131.59 C1224.28,193.02 1346.1369,281.6119 1413.1269,330.3119" fill="none" id="ReviewRegistrationController-to-AuthenticationRepository" style="stroke:#181818;stroke-width:1;stroke-dasharray:7,7;"/><polygon fill="#181818" points="1417.98,333.84,1413.0524,325.3125,1413.9357,330.8999,1408.3483,331.7833,1417.98,333.84" style="stroke:#181818;stroke-width:1;"/></g><!--link ReviewRegistrationController to RegistrationRequest--><g class="link" data-entity-1="ReviewRegistrationController" data-entity-2="RegistrationRequest" data-source-line="82" data-uid="lnk18" id="link_ReviewRegistrationController_RegistrationRequest"><path codeLine="82" d="M826.94,126.87 C815.87,129.62 809.25,131.27 809.25,131.27 C809.25,131.27 301.25,210.27 301.25,210.27 C301.25,210.27 298.3254,213.8094 287.9354,226.4194" fill="none" id="ReviewRegistrationController-to-RegistrationRequest" style="stroke:#181818;stroke-width:1;stroke-dasharray:7,7;"/><polygon fill="#181818" points="284.12,231.05,292.9302,226.6477,287.2995,227.1911,286.756,221.5605,284.12,231.05" style="stroke:#181818;stroke-width:1;"/></g><!--link Repositories to Repositories--><g class="link" data-entity-1="Repositories" data-entity-2="Repositories" data-source-line="83" data-uid="lnk19" id="link_Repositories_Repositories"><path codeLine="83" d="M1787.94,53.99 C1809.3,57.14 1822.73,62.19 1822.73,69.13 C1822.73,76.08 1815.2358,80.2546 1793.8758,83.4046" fill="none" id="Repositories-to-Repositories" style="stroke:#181818;stroke-width:1;"/><polygon fill="#181818" points="1787.94,84.28,1797.4273,86.9242,1792.8865,83.5505,1796.2601,79.0098,1787.94,84.28" style="stroke:#181818;stroke-width:1;"/><text fill="#000000" font-family="sans-serif" font-size="13" lengthAdjust="spacing" textLength="51.207" x="1828.73" y="74.527">instance</text><text fill="#000000" font-family="sans-serif" font-size="13" lengthAdjust="spacing" textLength="7.436" x="1795.7628" y="81.4066">1</text></g><!--link Repositories to RegistrationRequestRepository--><g class="link" data-entity-1="Repositories" data-entity-2="RegistrationRequestRepository" data-source-line="84" data-uid="lnk20" id="link_Repositories_RegistrationRequestRepository"><path codeLine="84" d="M1649.31,131.6 C1708.15,169.25 1772.25,210.27 1772.25,210.27 C1772.25,210.27 1862.5584,284.2579 1918.5684,330.1379" fill="none" id="Repositories-to-RegistrationRequestRepository" style="stroke:#181818;stroke-width:1;"/><polygon fill="#181818" points="1923.21,333.94,1918.7824,325.1425,1919.342,330.7716,1913.7129,331.3312,1923.21,333.94" style="stroke:#181818;stroke-width:1;"/><text fill="#000000" font-family="sans-serif" font-size="13" lengthAdjust="spacing" textLength="186.6932" x="1725.94" y="176.167">registrationRequestRepository</text><text fill="#000000" font-family="sans-serif" font-size="13" lengthAdjust="spacing" textLength="7.436" x="1907.2744" y="322.1846">1</text></g><!--link Repositories to AuthenticationRepository--><g class="link" data-entity-1="Repositories" data-entity-2="AuthenticationRepository" data-source-line="85" data-uid="lnk21" id="link_Repositories_AuthenticationRepository"><path codeLine="85" d="M1534.6,131.59 C1515.96,193.02 1489.7525,279.3986 1474.9725,328.0986" fill="none" id="Repositories-to-AuthenticationRepository" style="stroke:#181818;stroke-width:1;"/><polygon fill="#181818" points="1473.23,333.84,1479.6713,326.3895,1474.6821,329.0555,1472.0161,324.0662,1473.23,333.84" style="stroke:#181818;stroke-width:1;"/><text fill="#000000" font-family="sans-serif" font-size="13" lengthAdjust="spacing" textLength="154.3622" x="1525.14" y="176.167">authenticationRepository</text><text fill="#000000" font-family="sans-serif" font-size="13" lengthAdjust="spacing" textLength="7.436" x="1467.5487" y="322.4582">1</text></g><!--link ReviewRegistrationController to EmailService--><g class="link" data-entity-1="ReviewRegistrationController" data-entity-2="EmailService" data-source-line="86" data-uid="lnk22" id="link_ReviewRegistrationController_EmailService"><path codeLine="86" d="M977.61,131.6 C930.06,169.25 878.25,210.27 878.25,210.27 C878.25,210.27 878.25,525.22 878.25,525.22 C878.25,525.22 898.8471,592.2548 912.3871,636.3048" fill="none" id="ReviewRegistrationController-to-EmailService" style="stroke:#181818;stroke-width:1;"/><polygon fill="#181818" points="914.15,642.04,915.3292,632.262,912.6809,637.2607,907.6822,634.6125,914.15,642.04" style="stroke:#181818;stroke-width:1;"/><text fill="#000000" font-family="sans-serif" font-size="13" lengthAdjust="spacing" textLength="76.856" x="879.25" y="373.137">emailService</text></g><!--link ReviewRegistrationController to EmailServiceFactory--><g class="link" data-entity-1="ReviewRegistrationController" data-entity-2="EmailServiceFactory" data-source-line="87" data-uid="lnk23" id="link_ReviewRegistrationController_EmailServiceFactory"><path codeLine="87" d="M1055.25,131.59 C1055.25,193.02 1055.25,279.14 1055.25,327.84" fill="none" id="ReviewRegistrationController-to-EmailServiceFactory" style="stroke:#181818;stroke-width:1;stroke-dasharray:7,7;"/><polygon fill="#181818" points="1055.25,333.84,1059.25,324.84,1055.25,328.84,1051.25,324.84,1055.25,333.84" style="stroke:#181818;stroke-width:1;"/></g><!--link GmailEmailService to EmailService--><g class="link" data-entity-1="GmailEmailService" data-entity-2="EmailService" data-source-line="88" data-uid="lnk24" id="link_GmailEmailService_EmailService"><path codeLine="88" d="M2354.69,401.74 C2280.17,447.65 2154.25,525.22 2154.25,525.22 C2154.25,525.22 1535.3982,600.5256 1178.1782,643.9956" fill="none" id="GmailEmailService-to-EmailService" style="stroke:#181818;stroke-width:1;stroke-dasharray:7,7;"/><polygon fill="none" points="1160.31,646.17,1178.903,649.9517,1177.4534,638.0396,1160.31,646.17" style="stroke:#181818;stroke-width:1;"/></g><!--link DeiEmailService to EmailService--><g class="link" data-entity-1="DeiEmailService" data-entity-2="EmailService" data-source-line="89" data-uid="lnk25" id="link_DeiEmailService_EmailService"><path codeLine="89" d="M593.85,401.51 C664.87,460.28 799.2811,571.496 870.5111,630.426" fill="none" id="DeiEmailService-to-EmailService" style="stroke:#181818;stroke-width:1;stroke-dasharray:7,7;"/><polygon fill="none" points="884.38,641.9,874.3358,625.803,866.6864,635.0489,884.38,641.9" style="stroke:#181818;stroke-width:1;"/></g><!--link EmailServiceFactory to EmailService--><g class="link" data-entity-1="EmailServiceFactory" data-entity-2="EmailService" data-source-line="90" data-uid="lnk26" id="link_EmailServiceFactory_EmailService"><path codeLine="90" d="M1041.23,401.51 C1016.08,460.28 965.9399,577.4536 940.7299,636.3836" fill="none" id="EmailServiceFactory-to-EmailService" style="stroke:#181818;stroke-width:1;stroke-dasharray:7,7;"/><polygon fill="#181818" points="938.37,641.9,945.5875,635.1986,940.3366,637.303,938.2322,632.0521,938.37,641.9" style="stroke:#181818;stroke-width:1;"/><text fill="#000000" font-family="sans-serif" font-size="13" lengthAdjust="spacing" textLength="44.486" x="975.16" y="570.117">creates</text></g><!--link RegistrationRequest to UserRole--><g class="link" data-entity-1="RegistrationRequest" data-entity-2="UserRole" data-source-line="91" data-uid="lnk27" id="link_RegistrationRequest_UserRole"><path codeLine="91" d="M125.17,525.4 C116.9,552.92 110.4059,574.5236 103.3059,598.1636" fill="none" id="RegistrationRequest-to-UserRole" style="stroke:#181818;stroke-width:1;"/><polygon fill="#181818" points="101.58,603.91,107.9998,596.4409,103.0182,599.1213,100.3379,594.1398,101.58,603.91" style="stroke:#181818;stroke-width:1;"/><text fill="#000000" font-family="sans-serif" font-size="13" lengthAdjust="spacing" textLength="23.92" x="116.3" y="570.117">role</text><text fill="#000000" font-family="sans-serif" font-size="13" lengthAdjust="spacing" textLength="7.436" x="115.7306" y="547.3622">1</text><text fill="#000000" font-family="sans-serif" font-size="13" lengthAdjust="spacing" textLength="7.436" x="96.4413" y="592.5439">1</text></g><!--link RegistrationRequest to RegistrationStatus--><g class="link" data-entity-1="RegistrationRequest" data-entity-2="RegistrationStatus" data-source-line="92" data-uid="lnk28" id="link_RegistrationRequest_RegistrationStatus"><path codeLine="92" d="M219.84,525.4 C230.56,560.71 239.4655,590.0192 247.7555,617.2992" fill="none" id="RegistrationRequest-to-RegistrationStatus" style="stroke:#181818;stroke-width:1;"/><polygon fill="#181818" points="249.5,623.04,250.7104,613.2658,248.0462,618.256,243.056,615.5919,249.5,623.04" style="stroke:#181818;stroke-width:1;"/><text fill="#000000" font-family="sans-serif" font-size="13" lengthAdjust="spacing" textLength="37.167" x="233.51" y="570.117">status</text><text fill="#000000" font-family="sans-serif" font-size="13" lengthAdjust="spacing" textLength="7.436" x="214.9861" y="547.3622">1</text><text fill="#000000" font-family="sans-serif" font-size="13" lengthAdjust="spacing" textLength="7.436" x="239.8239" y="611.359">1</text></g><!--SRC=[lLRVRvim47xdhx3sb6fjjRsYgH9AQ4ULaWZe9ksbSk6IUYKsiqsghEl_FjiuX5-XMn-Q5-Axx-wupz_PY4T22ypn1XKuVSHhYEKk1yGXbPYkSt143H0FE6DFXAxH2kUYwSa91Rah01Kit-b5mvVcM0XFIaxkImb1ocXCVWFwv3Z6WoBO4dYAO4s4v5WIHcy3zEoy7FTF6PMSvJbmXKFgzt4KD3cne3N89T1CDH31hnA459CJvAAvYldI3BNU2nk6YuApBLZhX5TF5JWGe_Dj6SbiA8UVYiT_YZnLO2mOLTvOSKNNTQe64xqeIy0PMfLv7k8DrE7M3XjCygwnKDcU6C-wTf81bMH5KbDYnj9oemnTb2ZlDqG8ZS1I5zIFlKzYMOfEXx4nMaH5YUcWrMwRxCaWaPDZ5DNxUsbfCF6jnChfQou6FKjBoA0pOdcLxrO0ruk3g-hCE0SQ7jku20ecY6HyLslul-LPv_TA-Q1tBhN-NcgSPVhblnFvOBgXJQMSTaHosjU74gSA2x9HSTgg14IjogQn7iDdBHAIlkY60weMD0LBuG7Te7-Cl1xrFSGXqJ6MJ8vZJjqWeHBu2gU0Z89Yu5kY5djoXTgqa1tcPYAPto5KZOpMRyDopxBT29jNEi6xLPi1URTQpKANE6t9j5P6gWPTLg9eudKMeEMcdaGRkLpCWoIOUlCxxyeF4sERAiiFFpJ_hnUtKUZDWxXo-SdNO1hVJHStDq6I-BunUhER85I8o4iMKLseFzNxaduu2yAhAdIvZ1RV_9bPHFwrFqtKGgKOlDhEBqPlAsVqlZF1ZIaP1nlqs6oy6dvqBDvIs6cT4MSNwCFd3-rpmqN47WWTR0qUEqXTTKsCTpkGykZPwIByfkPrujOqkTNvkjVmgymDJ8ZJFm_Ep_-qeKvtYlk8eTdhLbIlMqsV5bV_UqDJjgUkdaBNN0-luWU6oRLV3CvV]--></g></svg>