<svg xmlns="http://www.w3.org/2000/svg" xmlns:xlink="http://www.w3.org/1999/xlink" contentStyleType="text/css" data-diagram-type="SEQUENCE" height="351px" preserveAspectRatio="none" style="width:520px;height:351px;background:#FFFFFF;" version="1.1" viewBox="0 0 520 351" width="520px" zoomAndPan="magnify"><title>System Sequence Diagram (SSD) - US05</title><defs/><g><text fill="#000000" font-family="sans-serif" font-size="14" font-weight="bold" lengthAdjust="spacing" textLength="269.2061" x="124.793" y="30.1074">System Sequence Diagram (SSD) - US05</text><g><title>Administrator</title><rect fill="#FFFFFF" height="117.1641" style="stroke:#181818;stroke-width:1;" width="10" x="44.2344" y="133.2422"/></g><g><title>.System</title><rect fill="#FFFFFF" height="31.291" style="stroke:#181818;stroke-width:1;" width="10" x="477.5093" y="156.5332"/></g><g><title>.System</title><rect fill="#FFFFFF" height="31.291" style="stroke:#181818;stroke-width:1;" width="10" x="477.5093" y="219.1152"/></g><g><title>Administrator</title><rect fill="#000000" fill-opacity="0.00000" height="145.1641" width="8" x="45.2344" y="123.2422"/><line style="stroke:#181818;stroke-width:0.5;stroke-dasharray:5,5;" x1="49" x2="49" y1="123.2422" y2="268.4063"/></g><g><title>.System</title><rect fill="#000000" fill-opacity="0.00000" height="145.1641" width="8" x="478.5093" y="123.2422"/><line style="stroke:#181818;stroke-width:0.5;stroke-dasharray:5,5;" x1="482.2266" x2="482.2266" y1="123.2422" y2="268.4063"/></g><g class="participant participant-head" data-participant="Admin"><text fill="#000000" font-family="sans-serif" font-size="14" lengthAdjust="spacing" textLength="82.4688" x="5" y="119.7285">Administrator</text><ellipse cx="49.2344" cy="53.1211" fill="#E3E3E3" rx="8" ry="8" style="stroke:#181818;stroke-width:0.5;"/><path d="M49.2344,61.1211 L49.2344,88.1211 M36.2344,69.1211 L62.2344,69.1211 M49.2344,88.1211 L36.2344,103.1211 M49.2344,88.1211 L62.2344,103.1211" fill="none" style="stroke:#181818;stroke-width:0.5;"/></g><g class="participant participant-tail" data-participant="Admin"><text fill="#000000" font-family="sans-serif" font-size="14" lengthAdjust="spacing" textLength="82.4688" x="5" y="282.5137">Administrator</text><ellipse cx="49.2344" cy="294.5273" fill="#E3E3E3" rx="8" ry="8" style="stroke:#181818;stroke-width:0.5;"/><path d="M49.2344,302.5273 L49.2344,329.5273 M36.2344,310.5273 L62.2344,310.5273 M49.2344,329.5273 L36.2344,344.5273 M49.2344,329.5273 L62.2344,344.5273" fill="none" style="stroke:#181818;stroke-width:0.5;"/></g><g class="participant participant-head" data-participant="System"><rect fill="#E3E3E3" height="32.6211" rx="2.5" ry="2.5" style="stroke:#181818;stroke-width:0.5;" width="64.5654" x="450.2266" y="89.6211"/><text fill="#000000" font-family="sans-serif" font-size="14" lengthAdjust="spacing" textLength="50.5654" x="457.2266" y="111.7285">:System</text></g><g class="participant participant-tail" data-participant="System"><rect fill="#E3E3E3" height="32.6211" rx="2.5" ry="2.5" style="stroke:#181818;stroke-width:0.5;" width="64.5654" x="450.2266" y="267.4063"/><text fill="#000000" font-family="sans-serif" font-size="14" lengthAdjust="spacing" textLength="50.5654" x="457.2266" y="289.5137">:System</text></g><g><title>Administrator</title><rect fill="#FFFFFF" height="117.1641" style="stroke:#181818;stroke-width:1;" width="10" x="44.2344" y="133.2422"/></g><g><title>.System</title><rect fill="#FFFFFF" height="31.291" style="stroke:#181818;stroke-width:1;" width="10" x="477.5093" y="156.5332"/></g><g><title>.System</title><rect fill="#FFFFFF" height="31.291" style="stroke:#181818;stroke-width:1;" width="10" x="477.5093" y="219.1152"/></g><g class="message" data-participant-1="Admin" data-participant-2="System"><polygon fill="#181818" points="465.5093,152.5332,475.5093,156.5332,465.5093,160.5332,469.5093,156.5332" style="stroke:#181818;stroke-width:1;"/><line style="stroke:#181818;stroke-width:1;" x1="54.2344" x2="471.5093" y1="156.5332" y2="156.5332"/><text fill="#000000" font-family="sans-serif" font-size="13" font-weight="bold" lengthAdjust="spacing" textLength="7.23" x="61.2344" y="151.2705">1</text><text fill="#000000" font-family="sans-serif" font-size="13" lengthAdjust="spacing" textLength="175.5889" x="72.4644" y="151.2705">asks to register a new function</text></g><g class="message" data-participant-1="System" data-participant-2="Admin"><polygon fill="#181818" points="65.2344,183.8242,55.2344,187.8242,65.2344,191.8242,61.2344,187.8242" style="stroke:#181818;stroke-width:1;"/><line style="stroke:#181818;stroke-width:1;stroke-dasharray:2,2;" x1="59.2344" x2="481.5093" y1="187.8242" y2="187.8242"/><text fill="#000000" font-family="sans-serif" font-size="13" font-weight="bold" lengthAdjust="spacing" textLength="7.23" x="71.2344" y="182.5615">2</text><text fill="#000000" font-family="sans-serif" font-size="13" lengthAdjust="spacing" textLength="157.5425" x="82.4644" y="182.5615">requests data (designation)</text></g><g class="message" data-participant-1="Admin" data-participant-2="System"><polygon fill="#181818" points="465.5093,215.1152,475.5093,219.1152,465.5093,223.1152,469.5093,219.1152" style="stroke:#181818;stroke-width:1;"/><line style="stroke:#181818;stroke-width:1;" x1="54.2344" x2="471.5093" y1="219.1152" y2="219.1152"/><text fill="#000000" font-family="sans-serif" font-size="13" font-weight="bold" lengthAdjust="spacing" textLength="7.23" x="61.2344" y="213.8525">3</text><text fill="#000000" font-family="sans-serif" font-size="13" lengthAdjust="spacing" textLength="121.418" x="72.4644" y="213.8525">types requested data</text></g><g class="message" data-participant-1="System" data-participant-2="Admin"><polygon fill="#181818" points="60.2344,246.4063,50.2344,250.4063,60.2344,254.4063,56.2344,250.4063" style="stroke:#181818;stroke-width:1;"/><line style="stroke:#181818;stroke-width:1;stroke-dasharray:2,2;" x1="54.2344" x2="481.5093" y1="250.4063" y2="250.4063"/><text fill="#000000" font-family="sans-serif" font-size="13" font-weight="bold" lengthAdjust="spacing" textLength="7.23" x="66.2344" y="245.1436">4</text><text fill="#000000" font-family="sans-serif" font-size="13" lengthAdjust="spacing" textLength="388.0449" x="77.4644" y="245.1436">validates data, registers the function and informs operation success</text></g><!--SRC=[ZL3DQiCm3BxxAKHFBQomoouv30PzWx07q6mbDOtbp99RylPJaxGheuUTR4lVh-KKUSI22LBcx8yb9m8jbPpSDoFw4_RKwZGG5FAAt0-F03bYo9V8FNGu23cdKGtQJgAKeANlIkm93X7xAtpRjeSTxE6pVNrp3gjchkcBYjszvWARZv0YHz62zjm02imJPsuQVHoH5JRD8Z-lb-lCZsTKMl5kFc3_VelI6FWaeDbgz6P01H2OBj1LDchcNuLLSYNkJMCHQungVKG50Yh2Df34dl7Athb0VmMUPD1f9Bd9K9Xr_cDynY4QbXRdbti7AtIaUmL03X2vooK9v97A70saUayYpn8-Z9P_-m40]--></g></svg>