<?xml version="1.0" encoding="utf-8" standalone="no"?>
<!DOCTYPE svg PUBLIC "-//W3C//DTD SVG 1.1//EN"
  "http://www.w3.org/Graphics/SVG/1.1/DTD/svg11.dtd">
<svg xmlns:xlink="http://www.w3.org/1999/xlink" width="460.8pt" height="345.6pt" viewBox="0 0 460.8 345.6" xmlns="http://www.w3.org/2000/svg" version="1.1">
 <metadata>
  <rdf:RDF xmlns:dc="http://purl.org/dc/elements/1.1/" xmlns:cc="http://creativecommons.org/ns#" xmlns:rdf="http://www.w3.org/1999/02/22-rdf-syntax-ns#">
   <cc:Work>
    <dc:type rdf:resource="http://purl.org/dc/dcmitype/StillImage"/>
    <dc:date>2026-05-16T23:29:54.871197</dc:date>
    <dc:format>image/svg+xml</dc:format>
    <dc:creator>
     <cc:Agent>
      <dc:title>Matplotlib v3.10.9, https://matplotlib.org/</dc:title>
     </cc:Agent>
    </dc:creator>
   </cc:Work>
  </rdf:RDF>
 </metadata>
 <defs>
  <style type="text/css">*{stroke-linejoin: round; stroke-linecap: butt}</style>
 </defs>
 <g id="figure_1">
  <g id="patch_1">
   <path d="M 0 345.6 
L 460.8 345.6 
L 460.8 0 
L 0 0 
z
" style="fill: #ffffff"/>
  </g>
  <g id="axes_1">
   <g id="patch_2">
    <path d="M 69.77 317.72 
L 225 317.72 
L 225 26.88 
L 69.77 26.88 
z
" style="fill: #ffffff"/>
   </g>
   <g id="matplotlib.axis_1">
    <g id="xtick_1">
     <g id="line2d_1">
      <defs>
       <path id="mb8764dc31d" d="M 0 0 
L 0 3.5 
" style="stroke: #000000; stroke-width: 0.8"/>
      </defs>
      <g>
       <use xlink:href="#mb8764dc31d" x="147.385" y="317.72" style="stroke: #000000; stroke-width: 0.8"/>
      </g>
     </g>
     <g id="text_1">
      <!-- 1 -->
      <g transform="translate(144.20375 332.318437) scale(0.1 -0.1)">
       <defs>
        <path id="DejaVuSans-31" d="M 794 531 
L 1825 531 
L 1825 4091 
L 703 3866 
L 703 4441 
L 1819 4666 
L 2450 4666 
L 2450 531 
L 3481 531 
L 3481 0 
L 794 0 
L 794 531 
z
" transform="scale(0.015625)"/>
       </defs>
       <use xlink:href="#DejaVuSans-31"/>
      </g>
     </g>
    </g>
   </g>
   <g id="matplotlib.axis_2">
    <g id="ytick_1">
     <g id="line2d_2">
      <defs>
       <path id="mfe1bf80d54" d="M 0 0 
L -3.5 0 
" style="stroke: #000000; stroke-width: 0.8"/>
      </defs>
      <g>
       <use xlink:href="#mfe1bf80d54" x="69.77" y="274.267682" style="stroke: #000000; stroke-width: 0.8"/>
      </g>
     </g>
     <g id="text_2">
      <!-- 50000 -->
      <g transform="translate(30.9575 278.066901) scale(0.1 -0.1)">
       <defs>
        <path id="DejaVuSans-35" d="M 691 4666 
L 3169 4666 
L 3169 4134 
L 1269 4134 
L 1269 2991 
Q 1406 3038 1543 3061 
Q 1681 3084 1819 3084 
Q 2600 3084 3056 2656 
Q 3513 2228 3513 1497 
Q 3513 744 3044 326 
Q 2575 -91 1722 -91 
Q 1428 -91 1123 -41 
Q 819 9 494 109 
L 494 744 
Q 775 591 1075 516 
Q 1375 441 1709 441 
Q 2250 441 2565 725 
Q 2881 1009 2881 1497 
Q 2881 1984 2565 2268 
Q 2250 2553 1709 2553 
Q 1456 2553 1204 2497 
Q 953 2441 691 2322 
L 691 4666 
z
" transform="scale(0.015625)"/>
        <path id="DejaVuSans-30" d="M 2034 4250 
Q 1547 4250 1301 3770 
Q 1056 3291 1056 2328 
Q 1056 1369 1301 889 
Q 1547 409 2034 409 
Q 2525 409 2770 889 
Q 3016 1369 3016 2328 
Q 3016 3291 2770 3770 
Q 2525 4250 2034 4250 
z
M 2034 4750 
Q 2819 4750 3233 4129 
Q 3647 3509 3647 2328 
Q 3647 1150 3233 529 
Q 2819 -91 2034 -91 
Q 1250 -91 836 529 
Q 422 1150 422 2328 
Q 422 3509 836 4129 
Q 1250 4750 2034 4750 
z
" transform="scale(0.015625)"/>
       </defs>
       <use xlink:href="#DejaVuSans-35"/>
       <use xlink:href="#DejaVuSans-30" transform="translate(63.623047 0)"/>
       <use xlink:href="#DejaVuSans-30" transform="translate(127.246094 0)"/>
       <use xlink:href="#DejaVuSans-30" transform="translate(190.869141 0)"/>
       <use xlink:href="#DejaVuSans-30" transform="translate(254.492188 0)"/>
      </g>
     </g>
    </g>
    <g id="ytick_2">
     <g id="line2d_3">
      <g>
       <use xlink:href="#mfe1bf80d54" x="69.77" y="217.546612" style="stroke: #000000; stroke-width: 0.8"/>
      </g>
     </g>
     <g id="text_3">
      <!-- 100000 -->
      <g transform="translate(24.595 221.345831) scale(0.1 -0.1)">
       <use xlink:href="#DejaVuSans-31"/>
       <use xlink:href="#DejaVuSans-30" transform="translate(63.623047 0)"/>
       <use xlink:href="#DejaVuSans-30" transform="translate(127.246094 0)"/>
       <use xlink:href="#DejaVuSans-30" transform="translate(190.869141 0)"/>
       <use xlink:href="#DejaVuSans-30" transform="translate(254.492188 0)"/>
       <use xlink:href="#DejaVuSans-30" transform="translate(318.115234 0)"/>
      </g>
     </g>
    </g>
    <g id="ytick_3">
     <g id="line2d_4">
      <g>
       <use xlink:href="#mfe1bf80d54" x="69.77" y="160.825543" style="stroke: #000000; stroke-width: 0.8"/>
      </g>
     </g>
     <g id="text_4">
      <!-- 150000 -->
      <g transform="translate(24.595 164.624761) scale(0.1 -0.1)">
       <use xlink:href="#DejaVuSans-31"/>
       <use xlink:href="#DejaVuSans-35" transform="translate(63.623047 0)"/>
       <use xlink:href="#DejaVuSans-30" transform="translate(127.246094 0)"/>
       <use xlink:href="#DejaVuSans-30" transform="translate(190.869141 0)"/>
       <use xlink:href="#DejaVuSans-30" transform="translate(254.492188 0)"/>
       <use xlink:href="#DejaVuSans-30" transform="translate(318.115234 0)"/>
      </g>
     </g>
    </g>
    <g id="ytick_4">
     <g id="line2d_5">
      <g>
       <use xlink:href="#mfe1bf80d54" x="69.77" y="104.104473" style="stroke: #000000; stroke-width: 0.8"/>
      </g>
     </g>
     <g id="text_5">
      <!-- 200000 -->
      <g transform="translate(24.595 107.903691) scale(0.1 -0.1)">
       <defs>
        <path id="DejaVuSans-32" d="M 1228 531 
L 3431 531 
L 3431 0 
L 469 0 
L 469 531 
Q 828 903 1448 1529 
Q 2069 2156 2228 2338 
Q 2531 2678 2651 2914 
Q 2772 3150 2772 3378 
Q 2772 3750 2511 3984 
Q 2250 4219 1831 4219 
Q 1534 4219 1204 4116 
Q 875 4013 500 3803 
L 500 4441 
Q 881 4594 1212 4672 
Q 1544 4750 1819 4750 
Q 2544 4750 2975 4387 
Q 3406 4025 3406 3419 
Q 3406 3131 3298 2873 
Q 3191 2616 2906 2266 
Q 2828 2175 2409 1742 
Q 1991 1309 1228 531 
z
" transform="scale(0.015625)"/>
       </defs>
       <use xlink:href="#DejaVuSans-32"/>
       <use xlink:href="#DejaVuSans-30" transform="translate(63.623047 0)"/>
       <use xlink:href="#DejaVuSans-30" transform="translate(127.246094 0)"/>
       <use xlink:href="#DejaVuSans-30" transform="translate(190.869141 0)"/>
       <use xlink:href="#DejaVuSans-30" transform="translate(254.492188 0)"/>
       <use xlink:href="#DejaVuSans-30" transform="translate(318.115234 0)"/>
      </g>
     </g>
    </g>
    <g id="ytick_5">
     <g id="line2d_6">
      <g>
       <use xlink:href="#mfe1bf80d54" x="69.77" y="47.383403" style="stroke: #000000; stroke-width: 0.8"/>
      </g>
     </g>
     <g id="text_6">
      <!-- 250000 -->
      <g transform="translate(24.595 51.182622) scale(0.1 -0.1)">
       <use xlink:href="#DejaVuSans-32"/>
       <use xlink:href="#DejaVuSans-35" transform="translate(63.623047 0)"/>
       <use xlink:href="#DejaVuSans-30" transform="translate(127.246094 0)"/>
       <use xlink:href="#DejaVuSans-30" transform="translate(190.869141 0)"/>
       <use xlink:href="#DejaVuSans-30" transform="translate(254.492188 0)"/>
       <use xlink:href="#DejaVuSans-30" transform="translate(318.115234 0)"/>
      </g>
     </g>
    </g>
    <g id="text_7">
     <!-- Total Income (€) -->
     <g transform="translate(18.515313 212.636719) rotate(-90) scale(0.1 -0.1)">
      <defs>
       <path id="DejaVuSans-54" d="M -19 4666 
L 3928 4666 
L 3928 4134 
L 2272 4134 
L 2272 0 
L 1638 0 
L 1638 4134 
L -19 4134 
L -19 4666 
z
" transform="scale(0.015625)"/>
       <path id="DejaVuSans-6f" d="M 1959 3097 
Q 1497 3097 1228 2736 
Q 959 2375 959 1747 
Q 959 1119 1226 758 
Q 1494 397 1959 397 
Q 2419 397 2687 759 
Q 2956 1122 2956 1747 
Q 2956 2369 2687 2733 
Q 2419 3097 1959 3097 
z
M 1959 3584 
Q 2709 3584 3137 3096 
Q 3566 2609 3566 1747 
Q 3566 888 3137 398 
Q 2709 -91 1959 -91 
Q 1206 -91 779 398 
Q 353 888 353 1747 
Q 353 2609 779 3096 
Q 1206 3584 1959 3584 
z
" transform="scale(0.015625)"/>
       <path id="DejaVuSans-74" d="M 1172 4494 
L 1172 3500 
L 2356 3500 
L 2356 3053 
L 1172 3053 
L 1172 1153 
Q 1172 725 1289 603 
Q 1406 481 1766 481 
L 2356 481 
L 2356 0 
L 1766 0 
Q 1100 0 847 248 
Q 594 497 594 1153 
L 594 3053 
L 172 3053 
L 172 3500 
L 594 3500 
L 594 4494 
L 1172 4494 
z
" transform="scale(0.015625)"/>
       <path id="DejaVuSans-61" d="M 2194 1759 
Q 1497 1759 1228 1600 
Q 959 1441 959 1056 
Q 959 750 1161 570 
Q 1363 391 1709 391 
Q 2188 391 2477 730 
Q 2766 1069 2766 1631 
L 2766 1759 
L 2194 1759 
z
M 3341 1997 
L 3341 0 
L 2766 0 
L 2766 531 
Q 2569 213 2275 61 
Q 1981 -91 1556 -91 
Q 1019 -91 701 211 
Q 384 513 384 1019 
Q 384 1609 779 1909 
Q 1175 2209 1959 2209 
L 2766 2209 
L 2766 2266 
Q 2766 2663 2505 2880 
Q 2244 3097 1772 3097 
Q 1472 3097 1187 3025 
Q 903 2953 641 2809 
L 641 3341 
Q 956 3463 1253 3523 
Q 1550 3584 1831 3584 
Q 2591 3584 2966 3190 
Q 3341 2797 3341 1997 
z
" transform="scale(0.015625)"/>
       <path id="DejaVuSans-6c" d="M 603 4863 
L 1178 4863 
L 1178 0 
L 603 0 
L 603 4863 
z
" transform="scale(0.015625)"/>
       <path id="DejaVuSans-20" transform="scale(0.015625)"/>
       <path id="DejaVuSans-49" d="M 628 4666 
L 1259 4666 
L 1259 0 
L 628 0 
L 628 4666 
z
" transform="scale(0.015625)"/>
       <path id="DejaVuSans-6e" d="M 3513 2113 
L 3513 0 
L 2938 0 
L 2938 2094 
Q 2938 2591 2744 2837 
Q 2550 3084 2163 3084 
Q 1697 3084 1428 2787 
Q 1159 2491 1159 1978 
L 1159 0 
L 581 0 
L 581 3500 
L 1159 3500 
L 1159 2956 
Q 1366 3272 1645 3428 
Q 1925 3584 2291 3584 
Q 2894 3584 3203 3211 
Q 3513 2838 3513 2113 
z
" transform="scale(0.015625)"/>
       <path id="DejaVuSans-63" d="M 3122 3366 
L 3122 2828 
Q 2878 2963 2633 3030 
Q 2388 3097 2138 3097 
Q 1578 3097 1268 2742 
Q 959 2388 959 1747 
Q 959 1106 1268 751 
Q 1578 397 2138 397 
Q 2388 397 2633 464 
Q 2878 531 3122 666 
L 3122 134 
Q 2881 22 2623 -34 
Q 2366 -91 2075 -91 
Q 1284 -91 818 406 
Q 353 903 353 1747 
Q 353 2603 823 3093 
Q 1294 3584 2113 3584 
Q 2378 3584 2631 3529 
Q 2884 3475 3122 3366 
z
" transform="scale(0.015625)"/>
       <path id="DejaVuSans-6d" d="M 3328 2828 
Q 3544 3216 3844 3400 
Q 4144 3584 4550 3584 
Q 5097 3584 5394 3201 
Q 5691 2819 5691 2113 
L 5691 0 
L 5113 0 
L 5113 2094 
Q 5113 2597 4934 2840 
Q 4756 3084 4391 3084 
Q 3944 3084 3684 2787 
Q 3425 2491 3425 1978 
L 3425 0 
L 2847 0 
L 2847 2094 
Q 2847 2600 2669 2842 
Q 2491 3084 2119 3084 
Q 1678 3084 1418 2786 
Q 1159 2488 1159 1978 
L 1159 0 
L 581 0 
L 581 3500 
L 1159 3500 
L 1159 2956 
Q 1356 3278 1631 3431 
Q 1906 3584 2284 3584 
Q 2666 3584 2933 3390 
Q 3200 3197 3328 2828 
z
" transform="scale(0.015625)"/>
       <path id="DejaVuSans-65" d="M 3597 1894 
L 3597 1613 
L 953 1613 
Q 991 1019 1311 708 
Q 1631 397 2203 397 
Q 2534 397 2845 478 
Q 3156 559 3463 722 
L 3463 178 
Q 3153 47 2828 -22 
Q 2503 -91 2169 -91 
Q 1331 -91 842 396 
Q 353 884 353 1716 
Q 353 2575 817 3079 
Q 1281 3584 2069 3584 
Q 2775 3584 3186 3129 
Q 3597 2675 3597 1894 
z
M 3022 2063 
Q 3016 2534 2758 2815 
Q 2500 3097 2075 3097 
Q 1594 3097 1305 2825 
Q 1016 2553 972 2059 
L 3022 2063 
z
" transform="scale(0.015625)"/>
       <path id="DejaVuSans-28" d="M 1984 4856 
Q 1566 4138 1362 3434 
Q 1159 2731 1159 2009 
Q 1159 1288 1364 580 
Q 1569 -128 1984 -844 
L 1484 -844 
Q 1016 -109 783 600 
Q 550 1309 550 2009 
Q 550 2706 781 3412 
Q 1013 4119 1484 4856 
L 1984 4856 
z
" transform="scale(0.015625)"/>
       <path id="DejaVuSans-20ac" d="M 3647 4306 
L 3647 3641 
Q 3363 3969 3098 4109 
Q 2834 4250 2516 4250 
Q 2025 4250 1709 3937 
Q 1394 3625 1294 3041 
L 3097 3041 
L 2925 2656 
L 1244 2656 
Q 1238 2581 1236 2509 
Q 1234 2438 1234 2328 
Q 1234 2228 1236 2156 
Q 1238 2084 1244 2009 
L 2638 2009 
L 2463 1625 
L 1294 1625 
Q 1394 1041 1709 725 
Q 2025 409 2516 409 
Q 2834 409 3098 550 
Q 3363 691 3647 1019 
L 3647 359 
Q 3369 134 3080 21 
Q 2791 -91 2491 -91 
Q 1750 -91 1267 362 
Q 784 816 659 1625 
L 0 1625 
L 172 2009 
L 606 2009 
Q 606 2081 604 2154 
Q 603 2228 603 2328 
Q 603 2438 604 2511 
Q 606 2584 606 2656 
L 0 2656 
L 172 3041 
L 659 3041 
Q 784 3844 1268 4297 
Q 1753 4750 2491 4750 
Q 2797 4750 3086 4639 
Q 3375 4528 3647 4306 
z
" transform="scale(0.015625)"/>
       <path id="DejaVuSans-29" d="M 513 4856 
L 1013 4856 
Q 1481 4119 1714 3412 
Q 1947 2706 1947 2009 
Q 1947 1309 1714 600 
Q 1481 -109 1013 -844 
L 513 -844 
Q 928 -128 1133 580 
Q 1338 1288 1338 2009 
Q 1338 2731 1133 3434 
Q 928 4138 513 4856 
z
" transform="scale(0.015625)"/>
      </defs>
      <use xlink:href="#DejaVuSans-54"/>
      <use xlink:href="#DejaVuSans-6f" transform="translate(44.083984 0)"/>
      <use xlink:href="#DejaVuSans-74" transform="translate(105.265625 0)"/>
      <use xlink:href="#DejaVuSans-61" transform="translate(144.474609 0)"/>
      <use xlink:href="#DejaVuSans-6c" transform="translate(205.753906 0)"/>
      <use xlink:href="#DejaVuSans-20" transform="translate(233.537109 0)"/>
      <use xlink:href="#DejaVuSans-49" transform="translate(265.324219 0)"/>
      <use xlink:href="#DejaVuSans-6e" transform="translate(294.816406 0)"/>
      <use xlink:href="#DejaVuSans-63" transform="translate(358.195312 0)"/>
      <use xlink:href="#DejaVuSans-6f" transform="translate(413.175781 0)"/>
      <use xlink:href="#DejaVuSans-6d" transform="translate(474.357422 0)"/>
      <use xlink:href="#DejaVuSans-65" transform="translate(571.769531 0)"/>
      <use xlink:href="#DejaVuSans-20" transform="translate(633.292969 0)"/>
      <use xlink:href="#DejaVuSans-28" transform="translate(665.080078 0)"/>
      <use xlink:href="#DejaVuSans-20ac" transform="translate(704.09375 0)"/>
      <use xlink:href="#DejaVuSans-29" transform="translate(767.716797 0)"/>
     </g>
    </g>
   </g>
   <g id="line2d_7">
    <path d="M 135.74275 242.504975 
L 159.02725 242.504975 
L 159.02725 198.212204 
L 135.74275 198.212204 
L 135.74275 242.504975 
" clip-path="url(#pb958cd79f3)" style="fill: none; stroke: #000000; stroke-linecap: square"/>
   </g>
   <g id="line2d_8">
    <path d="M 147.385 242.504975 
L 147.385 304.5 
" clip-path="url(#pb958cd79f3)" style="fill: none; stroke: #000000; stroke-linecap: square"/>
   </g>
   <g id="line2d_9">
    <path d="M 147.385 198.212204 
L 147.385 131.783451 
" clip-path="url(#pb958cd79f3)" style="fill: none; stroke: #000000; stroke-linecap: square"/>
   </g>
   <g id="line2d_10">
    <path d="M 141.563875 304.5 
L 153.206125 304.5 
" clip-path="url(#pb958cd79f3)" style="fill: none; stroke: #000000; stroke-linecap: square"/>
   </g>
   <g id="line2d_11">
    <path d="M 141.563875 131.783451 
L 153.206125 131.783451 
" clip-path="url(#pb958cd79f3)" style="fill: none; stroke: #000000; stroke-linecap: square"/>
   </g>
   <g id="line2d_12">
    <defs>
     <path id="m3e8dc9c496" d="M 0 3 
C 0.795609 3 1.55874 2.683901 2.12132 2.12132 
C 2.683901 1.55874 3 0.795609 3 0 
C 3 -0.795609 2.683901 -1.55874 2.12132 -2.12132 
C 1.55874 -2.683901 0.795609 -3 0 -3 
C -0.795609 -3 -1.55874 -2.683901 -2.12132 -2.12132 
C -2.683901 -1.55874 -3 -0.795609 -3 0 
C -3 0.795609 -2.683901 1.55874 -2.12132 2.12132 
C -1.55874 2.683901 -0.795609 3 0 3 
z
" style="stroke: #000000"/>
    </defs>
    <g clip-path="url(#pb958cd79f3)">
     <use xlink:href="#m3e8dc9c496" x="147.385" y="87.07097" style="fill-opacity: 0; stroke: #000000"/>
     <use xlink:href="#m3e8dc9c496" x="147.385" y="115.899327" style="fill-opacity: 0; stroke: #000000"/>
     <use xlink:href="#m3e8dc9c496" x="147.385" y="114.039962" style="fill-opacity: 0; stroke: #000000"/>
     <use xlink:href="#m3e8dc9c496" x="147.385" y="109.688142" style="fill-opacity: 0; stroke: #000000"/>
     <use xlink:href="#m3e8dc9c496" x="147.385" y="118.465826" style="fill-opacity: 0; stroke: #000000"/>
     <use xlink:href="#m3e8dc9c496" x="147.385" y="106.774474" style="fill-opacity: 0; stroke: #000000"/>
     <use xlink:href="#m3e8dc9c496" x="147.385" y="96.7092" style="fill-opacity: 0; stroke: #000000"/>
     <use xlink:href="#m3e8dc9c496" x="147.385" y="93.716335" style="fill-opacity: 0; stroke: #000000"/>
     <use xlink:href="#m3e8dc9c496" x="147.385" y="99.181789" style="fill-opacity: 0; stroke: #000000"/>
     <use xlink:href="#m3e8dc9c496" x="147.385" y="107.615921" style="fill-opacity: 0; stroke: #000000"/>
     <use xlink:href="#m3e8dc9c496" x="147.385" y="131.526851" style="fill-opacity: 0; stroke: #000000"/>
     <use xlink:href="#m3e8dc9c496" x="147.385" y="119.634628" style="fill-opacity: 0; stroke: #000000"/>
     <use xlink:href="#m3e8dc9c496" x="147.385" y="115.419512" style="fill-opacity: 0; stroke: #000000"/>
     <use xlink:href="#m3e8dc9c496" x="147.385" y="124.252552" style="fill-opacity: 0; stroke: #000000"/>
     <use xlink:href="#m3e8dc9c496" x="147.385" y="114.765858" style="fill-opacity: 0; stroke: #000000"/>
     <use xlink:href="#m3e8dc9c496" x="147.385" y="128.088892" style="fill-opacity: 0; stroke: #000000"/>
     <use xlink:href="#m3e8dc9c496" x="147.385" y="129.323885" style="fill-opacity: 0; stroke: #000000"/>
     <use xlink:href="#m3e8dc9c496" x="147.385" y="129.184113" style="fill-opacity: 0; stroke: #000000"/>
     <use xlink:href="#m3e8dc9c496" x="147.385" y="128.830899" style="fill-opacity: 0; stroke: #000000"/>
     <use xlink:href="#m3e8dc9c496" x="147.385" y="124.637989" style="fill-opacity: 0; stroke: #000000"/>
     <use xlink:href="#m3e8dc9c496" x="147.385" y="77.104607" style="fill-opacity: 0; stroke: #000000"/>
     <use xlink:href="#m3e8dc9c496" x="147.385" y="120.036771" style="fill-opacity: 0; stroke: #000000"/>
     <use xlink:href="#m3e8dc9c496" x="147.385" y="116.02275" style="fill-opacity: 0; stroke: #000000"/>
     <use xlink:href="#m3e8dc9c496" x="147.385" y="40.1" style="fill-opacity: 0; stroke: #000000"/>
     <use xlink:href="#m3e8dc9c496" x="147.385" y="131.120502" style="fill-opacity: 0; stroke: #000000"/>
     <use xlink:href="#m3e8dc9c496" x="147.385" y="99.015129" style="fill-opacity: 0; stroke: #000000"/>
     <use xlink:href="#m3e8dc9c496" x="147.385" y="112.494907" style="fill-opacity: 0; stroke: #000000"/>
     <use xlink:href="#m3e8dc9c496" x="147.385" y="101.636141" style="fill-opacity: 0; stroke: #000000"/>
     <use xlink:href="#m3e8dc9c496" x="147.385" y="106.185634" style="fill-opacity: 0; stroke: #000000"/>
     <use xlink:href="#m3e8dc9c496" x="147.385" y="114.090879" style="fill-opacity: 0; stroke: #000000"/>
     <use xlink:href="#m3e8dc9c496" x="147.385" y="108.404851" style="fill-opacity: 0; stroke: #000000"/>
     <use xlink:href="#m3e8dc9c496" x="147.385" y="106.984228" style="fill-opacity: 0; stroke: #000000"/>
     <use xlink:href="#m3e8dc9c496" x="147.385" y="128.829797" style="fill-opacity: 0; stroke: #000000"/>
     <use xlink:href="#m3e8dc9c496" x="147.385" y="101.284032" style="fill-opacity: 0; stroke: #000000"/>
     <use xlink:href="#m3e8dc9c496" x="147.385" y="105.550798" style="fill-opacity: 0; stroke: #000000"/>
     <use xlink:href="#m3e8dc9c496" x="147.385" y="121.572427" style="fill-opacity: 0; stroke: #000000"/>
     <use xlink:href="#m3e8dc9c496" x="147.385" y="106.637143" style="fill-opacity: 0; stroke: #000000"/>
     <use xlink:href="#m3e8dc9c496" x="147.385" y="111.538671" style="fill-opacity: 0; stroke: #000000"/>
     <use xlink:href="#m3e8dc9c496" x="147.385" y="86.178244" style="fill-opacity: 0; stroke: #000000"/>
     <use xlink:href="#m3e8dc9c496" x="147.385" y="70.821717" style="fill-opacity: 0; stroke: #000000"/>
     <use xlink:href="#m3e8dc9c496" x="147.385" y="98.985977" style="fill-opacity: 0; stroke: #000000"/>
     <use xlink:href="#m3e8dc9c496" x="147.385" y="85.458324" style="fill-opacity: 0; stroke: #000000"/>
     <use xlink:href="#m3e8dc9c496" x="147.385" y="94.263334" style="fill-opacity: 0; stroke: #000000"/>
     <use xlink:href="#m3e8dc9c496" x="147.385" y="127.541602" style="fill-opacity: 0; stroke: #000000"/>
     <use xlink:href="#m3e8dc9c496" x="147.385" y="128.825291" style="fill-opacity: 0; stroke: #000000"/>
     <use xlink:href="#m3e8dc9c496" x="147.385" y="105.617239" style="fill-opacity: 0; stroke: #000000"/>
     <use xlink:href="#m3e8dc9c496" x="147.385" y="128.251531" style="fill-opacity: 0; stroke: #000000"/>
     <use xlink:href="#m3e8dc9c496" x="147.385" y="86.946483" style="fill-opacity: 0; stroke: #000000"/>
     <use xlink:href="#m3e8dc9c496" x="147.385" y="117.153271" style="fill-opacity: 0; stroke: #000000"/>
     <use xlink:href="#m3e8dc9c496" x="147.385" y="131.71538" style="fill-opacity: 0; stroke: #000000"/>
     <use xlink:href="#m3e8dc9c496" x="147.385" y="113.818236" style="fill-opacity: 0; stroke: #000000"/>
     <use xlink:href="#m3e8dc9c496" x="147.385" y="127.948063" style="fill-opacity: 0; stroke: #000000"/>
     <use xlink:href="#m3e8dc9c496" x="147.385" y="73.566387" style="fill-opacity: 0; stroke: #000000"/>
     <use xlink:href="#m3e8dc9c496" x="147.385" y="91.305027" style="fill-opacity: 0; stroke: #000000"/>
     <use xlink:href="#m3e8dc9c496" x="147.385" y="92.671144" style="fill-opacity: 0; stroke: #000000"/>
    </g>
   </g>
   <g id="line2d_13">
    <path d="M 135.74275 222.38227 
L 159.02725 222.38227 
" clip-path="url(#pb958cd79f3)" style="fill: none; stroke: #ff7f0e"/>
   </g>
   <g id="patch_3">
    <path d="M 69.77 317.72 
L 69.77 26.88 
" style="fill: none; stroke: #000000; stroke-width: 0.8; stroke-linejoin: miter; stroke-linecap: square"/>
   </g>
   <g id="patch_4">
    <path d="M 225 317.72 
L 225 26.88 
" style="fill: none; stroke: #000000; stroke-width: 0.8; stroke-linejoin: miter; stroke-linecap: square"/>
   </g>
   <g id="patch_5">
    <path d="M 69.77 317.72 
L 225 317.72 
" style="fill: none; stroke: #000000; stroke-width: 0.8; stroke-linejoin: miter; stroke-linecap: square"/>
   </g>
   <g id="patch_6">
    <path d="M 69.77 26.88 
L 225 26.88 
" style="fill: none; stroke: #000000; stroke-width: 0.8; stroke-linejoin: miter; stroke-linecap: square"/>
   </g>
   <g id="text_8">
    <!-- Boxplot — Total Income (€) -->
    <g transform="translate(66.51625 20.88) scale(0.12 -0.12)">
     <defs>
      <path id="DejaVuSans-42" d="M 1259 2228 
L 1259 519 
L 2272 519 
Q 2781 519 3026 730 
Q 3272 941 3272 1375 
Q 3272 1813 3026 2020 
Q 2781 2228 2272 2228 
L 1259 2228 
z
M 1259 4147 
L 1259 2741 
L 2194 2741 
Q 2656 2741 2882 2914 
Q 3109 3088 3109 3444 
Q 3109 3797 2882 3972 
Q 2656 4147 2194 4147 
L 1259 4147 
z
M 628 4666 
L 2241 4666 
Q 2963 4666 3353 4366 
Q 3744 4066 3744 3513 
Q 3744 3084 3544 2831 
Q 3344 2578 2956 2516 
Q 3422 2416 3680 2098 
Q 3938 1781 3938 1306 
Q 3938 681 3513 340 
Q 3088 0 2303 0 
L 628 0 
L 628 4666 
z
" transform="scale(0.015625)"/>
      <path id="DejaVuSans-78" d="M 3513 3500 
L 2247 1797 
L 3578 0 
L 2900 0 
L 1881 1375 
L 863 0 
L 184 0 
L 1544 1831 
L 300 3500 
L 978 3500 
L 1906 2253 
L 2834 3500 
L 3513 3500 
z
" transform="scale(0.015625)"/>
      <path id="DejaVuSans-70" d="M 1159 525 
L 1159 -1331 
L 581 -1331 
L 581 3500 
L 1159 3500 
L 1159 2969 
Q 1341 3281 1617 3432 
Q 1894 3584 2278 3584 
Q 2916 3584 3314 3078 
Q 3713 2572 3713 1747 
Q 3713 922 3314 415 
Q 2916 -91 2278 -91 
Q 1894 -91 1617 61 
Q 1341 213 1159 525 
z
M 3116 1747 
Q 3116 2381 2855 2742 
Q 2594 3103 2138 3103 
Q 1681 3103 1420 2742 
Q 1159 2381 1159 1747 
Q 1159 1113 1420 752 
Q 1681 391 2138 391 
Q 2594 391 2855 752 
Q 3116 1113 3116 1747 
z
" transform="scale(0.015625)"/>
      <path id="DejaVuSans-2014" d="M 313 1978 
L 6088 1978 
L 6088 1528 
L 313 1528 
L 313 1978 
z
" transform="scale(0.015625)"/>
     </defs>
     <use xlink:href="#DejaVuSans-42"/>
     <use xlink:href="#DejaVuSans-6f" transform="translate(68.603516 0)"/>
     <use xlink:href="#DejaVuSans-78" transform="translate(126.660156 0)"/>
     <use xlink:href="#DejaVuSans-70" transform="translate(185.839844 0)"/>
     <use xlink:href="#DejaVuSans-6c" transform="translate(249.316406 0)"/>
     <use xlink:href="#DejaVuSans-6f" transform="translate(277.099609 0)"/>
     <use xlink:href="#DejaVuSans-74" transform="translate(338.28125 0)"/>
     <use xlink:href="#DejaVuSans-20" transform="translate(377.490234 0)"/>
     <use xlink:href="#DejaVuSans-2014" transform="translate(409.277344 0)"/>
     <use xlink:href="#DejaVuSans-20" transform="translate(509.277344 0)"/>
     <use xlink:href="#DejaVuSans-54" transform="translate(541.064453 0)"/>
     <use xlink:href="#DejaVuSans-6f" transform="translate(585.148438 0)"/>
     <use xlink:href="#DejaVuSans-74" transform="translate(646.330078 0)"/>
     <use xlink:href="#DejaVuSans-61" transform="translate(685.539062 0)"/>
     <use xlink:href="#DejaVuSans-6c" transform="translate(746.818359 0)"/>
     <use xlink:href="#DejaVuSans-20" transform="translate(774.601562 0)"/>
     <use xlink:href="#DejaVuSans-49" transform="translate(806.388672 0)"/>
     <use xlink:href="#DejaVuSans-6e" transform="translate(835.880859 0)"/>
     <use xlink:href="#DejaVuSans-63" transform="translate(899.259766 0)"/>
     <use xlink:href="#DejaVuSans-6f" transform="translate(954.240234 0)"/>
     <use xlink:href="#DejaVuSans-6d" transform="translate(1015.421875 0)"/>
     <use xlink:href="#DejaVuSans-65" transform="translate(1112.833984 0)"/>
     <use xlink:href="#DejaVuSans-20" transform="translate(1174.357422 0)"/>
     <use xlink:href="#DejaVuSans-28" transform="translate(1206.144531 0)"/>
     <use xlink:href="#DejaVuSans-20ac" transform="translate(1245.158203 0)"/>
     <use xlink:href="#DejaVuSans-29" transform="translate(1308.78125 0)"/>
    </g>
   </g>
  </g>
  <g id="axes_2">
   <g id="patch_7">
    <path d="M 294.77 317.72 
L 450 317.72 
L 450 26.88 
L 294.77 26.88 
z
" style="fill: #ffffff"/>
   </g>
   <g id="matplotlib.axis_3">
    <g id="xtick_2">
     <g id="line2d_14">
      <g>
       <use xlink:href="#mb8764dc31d" x="372.385" y="317.72" style="stroke: #000000; stroke-width: 0.8"/>
      </g>
     </g>
     <g id="text_9">
      <!-- 1 -->
      <g transform="translate(369.20375 332.318437) scale(0.1 -0.1)">
       <use xlink:href="#DejaVuSans-31"/>
      </g>
     </g>
    </g>
   </g>
   <g id="matplotlib.axis_4">
    <g id="ytick_6">
     <g id="line2d_15">
      <g>
       <use xlink:href="#mfe1bf80d54" x="294.77" y="306.435506" style="stroke: #000000; stroke-width: 0.8"/>
      </g>
     </g>
     <g id="text_10">
      <!-- 0 -->
      <g transform="translate(281.4075 310.234724) scale(0.1 -0.1)">
       <use xlink:href="#DejaVuSans-30"/>
      </g>
     </g>
    </g>
    <g id="ytick_7">
     <g id="line2d_16">
      <g>
       <use xlink:href="#mfe1bf80d54" x="294.77" y="251.836086" style="stroke: #000000; stroke-width: 0.8"/>
      </g>
     </g>
     <g id="text_11">
      <!-- 50000 -->
      <g transform="translate(255.9575 255.635304) scale(0.1 -0.1)">
       <use xlink:href="#DejaVuSans-35"/>
       <use xlink:href="#DejaVuSans-30" transform="translate(63.623047 0)"/>
       <use xlink:href="#DejaVuSans-30" transform="translate(127.246094 0)"/>
       <use xlink:href="#DejaVuSans-30" transform="translate(190.869141 0)"/>
       <use xlink:href="#DejaVuSans-30" transform="translate(254.492188 0)"/>
      </g>
     </g>
    </g>
    <g id="ytick_8">
     <g id="line2d_17">
      <g>
       <use xlink:href="#mfe1bf80d54" x="294.77" y="197.236666" style="stroke: #000000; stroke-width: 0.8"/>
      </g>
     </g>
     <g id="text_12">
      <!-- 100000 -->
      <g transform="translate(249.595 201.035885) scale(0.1 -0.1)">
       <use xlink:href="#DejaVuSans-31"/>
       <use xlink:href="#DejaVuSans-30" transform="translate(63.623047 0)"/>
       <use xlink:href="#DejaVuSans-30" transform="translate(127.246094 0)"/>
       <use xlink:href="#DejaVuSans-30" transform="translate(190.869141 0)"/>
       <use xlink:href="#DejaVuSans-30" transform="translate(254.492188 0)"/>
       <use xlink:href="#DejaVuSans-30" transform="translate(318.115234 0)"/>
      </g>
     </g>
    </g>
    <g id="ytick_9">
     <g id="line2d_18">
      <g>
       <use xlink:href="#mfe1bf80d54" x="294.77" y="142.637246" style="stroke: #000000; stroke-width: 0.8"/>
      </g>
     </g>
     <g id="text_13">
      <!-- 150000 -->
      <g transform="translate(249.595 146.436465) scale(0.1 -0.1)">
       <use xlink:href="#DejaVuSans-31"/>
       <use xlink:href="#DejaVuSans-35" transform="translate(63.623047 0)"/>
       <use xlink:href="#DejaVuSans-30" transform="translate(127.246094 0)"/>
       <use xlink:href="#DejaVuSans-30" transform="translate(190.869141 0)"/>
       <use xlink:href="#DejaVuSans-30" transform="translate(254.492188 0)"/>
       <use xlink:href="#DejaVuSans-30" transform="translate(318.115234 0)"/>
      </g>
     </g>
    </g>
    <g id="ytick_10">
     <g id="line2d_19">
      <g>
       <use xlink:href="#mfe1bf80d54" x="294.77" y="88.037826" style="stroke: #000000; stroke-width: 0.8"/>
      </g>
     </g>
     <g id="text_14">
      <!-- 200000 -->
      <g transform="translate(249.595 91.837045) scale(0.1 -0.1)">
       <use xlink:href="#DejaVuSans-32"/>
       <use xlink:href="#DejaVuSans-30" transform="translate(63.623047 0)"/>
       <use xlink:href="#DejaVuSans-30" transform="translate(127.246094 0)"/>
       <use xlink:href="#DejaVuSans-30" transform="translate(190.869141 0)"/>
       <use xlink:href="#DejaVuSans-30" transform="translate(254.492188 0)"/>
       <use xlink:href="#DejaVuSans-30" transform="translate(318.115234 0)"/>
      </g>
     </g>
    </g>
    <g id="ytick_11">
     <g id="line2d_20">
      <g>
       <use xlink:href="#mfe1bf80d54" x="294.77" y="33.438406" style="stroke: #000000; stroke-width: 0.8"/>
      </g>
     </g>
     <g id="text_15">
      <!-- 250000 -->
      <g transform="translate(249.595 37.237625) scale(0.1 -0.1)">
       <use xlink:href="#DejaVuSans-32"/>
       <use xlink:href="#DejaVuSans-35" transform="translate(63.623047 0)"/>
       <use xlink:href="#DejaVuSans-30" transform="translate(127.246094 0)"/>
       <use xlink:href="#DejaVuSans-30" transform="translate(190.869141 0)"/>
       <use xlink:href="#DejaVuSans-30" transform="translate(254.492188 0)"/>
       <use xlink:href="#DejaVuSans-30" transform="translate(318.115234 0)"/>
      </g>
     </g>
    </g>
    <g id="text_16">
     <!-- Total Assets (€) -->
     <g transform="translate(243.515312 210.508594) rotate(-90) scale(0.1 -0.1)">
      <defs>
       <path id="DejaVuSans-41" d="M 2188 4044 
L 1331 1722 
L 3047 1722 
L 2188 4044 
z
M 1831 4666 
L 2547 4666 
L 4325 0 
L 3669 0 
L 3244 1197 
L 1141 1197 
L 716 0 
L 50 0 
L 1831 4666 
z
" transform="scale(0.015625)"/>
       <path id="DejaVuSans-73" d="M 2834 3397 
L 2834 2853 
Q 2591 2978 2328 3040 
Q 2066 3103 1784 3103 
Q 1356 3103 1142 2972 
Q 928 2841 928 2578 
Q 928 2378 1081 2264 
Q 1234 2150 1697 2047 
L 1894 2003 
Q 2506 1872 2764 1633 
Q 3022 1394 3022 966 
Q 3022 478 2636 193 
Q 2250 -91 1575 -91 
Q 1294 -91 989 -36 
Q 684 19 347 128 
L 347 722 
Q 666 556 975 473 
Q 1284 391 1588 391 
Q 1994 391 2212 530 
Q 2431 669 2431 922 
Q 2431 1156 2273 1281 
Q 2116 1406 1581 1522 
L 1381 1569 
Q 847 1681 609 1914 
Q 372 2147 372 2553 
Q 372 3047 722 3315 
Q 1072 3584 1716 3584 
Q 2034 3584 2315 3537 
Q 2597 3491 2834 3397 
z
" transform="scale(0.015625)"/>
      </defs>
      <use xlink:href="#DejaVuSans-54"/>
      <use xlink:href="#DejaVuSans-6f" transform="translate(44.083984 0)"/>
      <use xlink:href="#DejaVuSans-74" transform="translate(105.265625 0)"/>
      <use xlink:href="#DejaVuSans-61" transform="translate(144.474609 0)"/>
      <use xlink:href="#DejaVuSans-6c" transform="translate(205.753906 0)"/>
      <use xlink:href="#DejaVuSans-20" transform="translate(233.537109 0)"/>
      <use xlink:href="#DejaVuSans-41" transform="translate(265.324219 0)"/>
      <use xlink:href="#DejaVuSans-73" transform="translate(333.732422 0)"/>
      <use xlink:href="#DejaVuSans-73" transform="translate(385.832031 0)"/>
      <use xlink:href="#DejaVuSans-65" transform="translate(437.931641 0)"/>
      <use xlink:href="#DejaVuSans-74" transform="translate(499.455078 0)"/>
      <use xlink:href="#DejaVuSans-73" transform="translate(538.664062 0)"/>
      <use xlink:href="#DejaVuSans-20" transform="translate(590.763672 0)"/>
      <use xlink:href="#DejaVuSans-28" transform="translate(622.550781 0)"/>
      <use xlink:href="#DejaVuSans-20ac" transform="translate(661.564453 0)"/>
      <use xlink:href="#DejaVuSans-29" transform="translate(725.1875 0)"/>
     </g>
    </g>
   </g>
   <g id="line2d_21">
    <path d="M 360.74275 269.236419 
L 384.02725 269.236419 
L 384.02725 221.744657 
L 360.74275 221.744657 
L 360.74275 269.236419 
" clip-path="url(#p27d173336f)" style="fill: none; stroke: #000000; stroke-linecap: square"/>
   </g>
   <g id="line2d_22">
    <path d="M 372.385 269.236419 
L 372.385 304.5 
" clip-path="url(#p27d173336f)" style="fill: none; stroke: #000000; stroke-linecap: square"/>
   </g>
   <g id="line2d_23">
    <path d="M 372.385 221.744657 
L 372.385 151.509602 
" clip-path="url(#p27d173336f)" style="fill: none; stroke: #000000; stroke-linecap: square"/>
   </g>
   <g id="line2d_24">
    <path d="M 366.563875 304.5 
L 378.206125 304.5 
" clip-path="url(#p27d173336f)" style="fill: none; stroke: #000000; stroke-linecap: square"/>
   </g>
   <g id="line2d_25">
    <path d="M 366.563875 151.509602 
L 378.206125 151.509602 
" clip-path="url(#p27d173336f)" style="fill: none; stroke: #000000; stroke-linecap: square"/>
   </g>
   <g id="line2d_26">
    <g clip-path="url(#p27d173336f)">
     <use xlink:href="#m3e8dc9c496" x="372.385" y="105.800551" style="fill-opacity: 0; stroke: #000000"/>
     <use xlink:href="#m3e8dc9c496" x="372.385" y="141.083595" style="fill-opacity: 0; stroke: #000000"/>
     <use xlink:href="#m3e8dc9c496" x="372.385" y="119.007867" style="fill-opacity: 0; stroke: #000000"/>
     <use xlink:href="#m3e8dc9c496" x="372.385" y="50.037856" style="fill-opacity: 0; stroke: #000000"/>
     <use xlink:href="#m3e8dc9c496" x="372.385" y="104.052985" style="fill-opacity: 0; stroke: #000000"/>
     <use xlink:href="#m3e8dc9c496" x="372.385" y="131.356445" style="fill-opacity: 0; stroke: #000000"/>
     <use xlink:href="#m3e8dc9c496" x="372.385" y="135.981846" style="fill-opacity: 0; stroke: #000000"/>
     <use xlink:href="#m3e8dc9c496" x="372.385" y="109.500477" style="fill-opacity: 0; stroke: #000000"/>
     <use xlink:href="#m3e8dc9c496" x="372.385" y="56.602391" style="fill-opacity: 0; stroke: #000000"/>
     <use xlink:href="#m3e8dc9c496" x="372.385" y="149.570555" style="fill-opacity: 0; stroke: #000000"/>
     <use xlink:href="#m3e8dc9c496" x="372.385" y="43.943216" style="fill-opacity: 0; stroke: #000000"/>
     <use xlink:href="#m3e8dc9c496" x="372.385" y="63.825227" style="fill-opacity: 0; stroke: #000000"/>
     <use xlink:href="#m3e8dc9c496" x="372.385" y="143.796715" style="fill-opacity: 0; stroke: #000000"/>
     <use xlink:href="#m3e8dc9c496" x="372.385" y="147.037623" style="fill-opacity: 0; stroke: #000000"/>
     <use xlink:href="#m3e8dc9c496" x="372.385" y="149.011434" style="fill-opacity: 0; stroke: #000000"/>
     <use xlink:href="#m3e8dc9c496" x="372.385" y="134.389592" style="fill-opacity: 0; stroke: #000000"/>
     <use xlink:href="#m3e8dc9c496" x="372.385" y="122.944039" style="fill-opacity: 0; stroke: #000000"/>
     <use xlink:href="#m3e8dc9c496" x="372.385" y="147.474353" style="fill-opacity: 0; stroke: #000000"/>
     <use xlink:href="#m3e8dc9c496" x="372.385" y="122.362356" style="fill-opacity: 0; stroke: #000000"/>
     <use xlink:href="#m3e8dc9c496" x="372.385" y="40.1" style="fill-opacity: 0; stroke: #000000"/>
     <use xlink:href="#m3e8dc9c496" x="372.385" y="123.012513" style="fill-opacity: 0; stroke: #000000"/>
     <use xlink:href="#m3e8dc9c496" x="372.385" y="118.201653" style="fill-opacity: 0; stroke: #000000"/>
     <use xlink:href="#m3e8dc9c496" x="372.385" y="139.205815" style="fill-opacity: 0; stroke: #000000"/>
     <use xlink:href="#m3e8dc9c496" x="372.385" y="146.479248" style="fill-opacity: 0; stroke: #000000"/>
     <use xlink:href="#m3e8dc9c496" x="372.385" y="149.410964" style="fill-opacity: 0; stroke: #000000"/>
     <use xlink:href="#m3e8dc9c496" x="372.385" y="141.017413" style="fill-opacity: 0; stroke: #000000"/>
     <use xlink:href="#m3e8dc9c496" x="372.385" y="99.45591" style="fill-opacity: 0; stroke: #000000"/>
     <use xlink:href="#m3e8dc9c496" x="372.385" y="47.754428" style="fill-opacity: 0; stroke: #000000"/>
     <use xlink:href="#m3e8dc9c496" x="372.385" y="135.299722" style="fill-opacity: 0; stroke: #000000"/>
     <use xlink:href="#m3e8dc9c496" x="372.385" y="96.421034" style="fill-opacity: 0; stroke: #000000"/>
     <use xlink:href="#m3e8dc9c496" x="372.385" y="106.609423" style="fill-opacity: 0; stroke: #000000"/>
     <use xlink:href="#m3e8dc9c496" x="372.385" y="142.4472" style="fill-opacity: 0; stroke: #000000"/>
     <use xlink:href="#m3e8dc9c496" x="372.385" y="139.269182" style="fill-opacity: 0; stroke: #000000"/>
     <use xlink:href="#m3e8dc9c496" x="372.385" y="116.682886" style="fill-opacity: 0; stroke: #000000"/>
     <use xlink:href="#m3e8dc9c496" x="372.385" y="67.851294" style="fill-opacity: 0; stroke: #000000"/>
     <use xlink:href="#m3e8dc9c496" x="372.385" y="147.494541" style="fill-opacity: 0; stroke: #000000"/>
     <use xlink:href="#m3e8dc9c496" x="372.385" y="134.041327" style="fill-opacity: 0; stroke: #000000"/>
     <use xlink:href="#m3e8dc9c496" x="372.385" y="102.231572" style="fill-opacity: 0; stroke: #000000"/>
     <use xlink:href="#m3e8dc9c496" x="372.385" y="97.649276" style="fill-opacity: 0; stroke: #000000"/>
     <use xlink:href="#m3e8dc9c496" x="372.385" y="71.233887" style="fill-opacity: 0; stroke: #000000"/>
     <use xlink:href="#m3e8dc9c496" x="372.385" y="146.739259" style="fill-opacity: 0; stroke: #000000"/>
     <use xlink:href="#m3e8dc9c496" x="372.385" y="142.980476" style="fill-opacity: 0; stroke: #000000"/>
     <use xlink:href="#m3e8dc9c496" x="372.385" y="86.794711" style="fill-opacity: 0; stroke: #000000"/>
     <use xlink:href="#m3e8dc9c496" x="372.385" y="146.439571" style="fill-opacity: 0; stroke: #000000"/>
     <use xlink:href="#m3e8dc9c496" x="372.385" y="103.109882" style="fill-opacity: 0; stroke: #000000"/>
     <use xlink:href="#m3e8dc9c496" x="372.385" y="140.239846" style="fill-opacity: 0; stroke: #000000"/>
     <use xlink:href="#m3e8dc9c496" x="372.385" y="126.995695" style="fill-opacity: 0; stroke: #000000"/>
     <use xlink:href="#m3e8dc9c496" x="372.385" y="145.386636" style="fill-opacity: 0; stroke: #000000"/>
     <use xlink:href="#m3e8dc9c496" x="372.385" y="149.177525" style="fill-opacity: 0; stroke: #000000"/>
     <use xlink:href="#m3e8dc9c496" x="372.385" y="122.842195" style="fill-opacity: 0; stroke: #000000"/>
     <use xlink:href="#m3e8dc9c496" x="372.385" y="134.177555" style="fill-opacity: 0; stroke: #000000"/>
     <use xlink:href="#m3e8dc9c496" x="372.385" y="84.728769" style="fill-opacity: 0; stroke: #000000"/>
     <use xlink:href="#m3e8dc9c496" x="372.385" y="127.9874" style="fill-opacity: 0; stroke: #000000"/>
     <use xlink:href="#m3e8dc9c496" x="372.385" y="135.931692" style="fill-opacity: 0; stroke: #000000"/>
     <use xlink:href="#m3e8dc9c496" x="372.385" y="138.735076" style="fill-opacity: 0; stroke: #000000"/>
     <use xlink:href="#m3e8dc9c496" x="372.385" y="128.364088" style="fill-opacity: 0; stroke: #000000"/>
     <use xlink:href="#m3e8dc9c496" x="372.385" y="143.15281" style="fill-opacity: 0; stroke: #000000"/>
     <use xlink:href="#m3e8dc9c496" x="372.385" y="138.310148" style="fill-opacity: 0; stroke: #000000"/>
     <use xlink:href="#m3e8dc9c496" x="372.385" y="123.295352" style="fill-opacity: 0; stroke: #000000"/>
     <use xlink:href="#m3e8dc9c496" x="372.385" y="99.956113" style="fill-opacity: 0; stroke: #000000"/>
     <use xlink:href="#m3e8dc9c496" x="372.385" y="140.469659" style="fill-opacity: 0; stroke: #000000"/>
     <use xlink:href="#m3e8dc9c496" x="372.385" y="108.936652" style="fill-opacity: 0; stroke: #000000"/>
     <use xlink:href="#m3e8dc9c496" x="372.385" y="140.909962" style="fill-opacity: 0; stroke: #000000"/>
    </g>
   </g>
   <g id="line2d_27">
    <path d="M 360.74275 247.808138 
L 384.02725 247.808138 
" clip-path="url(#p27d173336f)" style="fill: none; stroke: #ff7f0e"/>
   </g>
   <g id="patch_8">
    <path d="M 294.77 317.72 
L 294.77 26.88 
" style="fill: none; stroke: #000000; stroke-width: 0.8; stroke-linejoin: miter; stroke-linecap: square"/>
   </g>
   <g id="patch_9">
    <path d="M 450 317.72 
L 450 26.88 
" style="fill: none; stroke: #000000; stroke-width: 0.8; stroke-linejoin: miter; stroke-linecap: square"/>
   </g>
   <g id="patch_10">
    <path d="M 294.77 317.72 
L 450 317.72 
" style="fill: none; stroke: #000000; stroke-width: 0.8; stroke-linejoin: miter; stroke-linecap: square"/>
   </g>
   <g id="patch_11">
    <path d="M 294.77 26.88 
L 450 26.88 
" style="fill: none; stroke: #000000; stroke-width: 0.8; stroke-linejoin: miter; stroke-linecap: square"/>
   </g>
   <g id="text_17">
    <!-- Boxplot — Total Assets (€) -->
    <g transform="translate(294.07 20.88) scale(0.12 -0.12)">
     <use xlink:href="#DejaVuSans-42"/>
     <use xlink:href="#DejaVuSans-6f" transform="translate(68.603516 0)"/>
     <use xlink:href="#DejaVuSans-78" transform="translate(126.660156 0)"/>
     <use xlink:href="#DejaVuSans-70" transform="translate(185.839844 0)"/>
     <use xlink:href="#DejaVuSans-6c" transform="translate(249.316406 0)"/>
     <use xlink:href="#DejaVuSans-6f" transform="translate(277.099609 0)"/>
     <use xlink:href="#DejaVuSans-74" transform="translate(338.28125 0)"/>
     <use xlink:href="#DejaVuSans-20" transform="translate(377.490234 0)"/>
     <use xlink:href="#DejaVuSans-2014" transform="translate(409.277344 0)"/>
     <use xlink:href="#DejaVuSans-20" transform="translate(509.277344 0)"/>
     <use xlink:href="#DejaVuSans-54" transform="translate(541.064453 0)"/>
     <use xlink:href="#DejaVuSans-6f" transform="translate(585.148438 0)"/>
     <use xlink:href="#DejaVuSans-74" transform="translate(646.330078 0)"/>
     <use xlink:href="#DejaVuSans-61" transform="translate(685.539062 0)"/>
     <use xlink:href="#DejaVuSans-6c" transform="translate(746.818359 0)"/>
     <use xlink:href="#DejaVuSans-20" transform="translate(774.601562 0)"/>
     <use xlink:href="#DejaVuSans-41" transform="translate(806.388672 0)"/>
     <use xlink:href="#DejaVuSans-73" transform="translate(874.796875 0)"/>
     <use xlink:href="#DejaVuSans-73" transform="translate(926.896484 0)"/>
     <use xlink:href="#DejaVuSans-65" transform="translate(978.996094 0)"/>
     <use xlink:href="#DejaVuSans-74" transform="translate(1040.519531 0)"/>
     <use xlink:href="#DejaVuSans-73" transform="translate(1079.728516 0)"/>
     <use xlink:href="#DejaVuSans-20" transform="translate(1131.828125 0)"/>
     <use xlink:href="#DejaVuSans-28" transform="translate(1163.615234 0)"/>
     <use xlink:href="#DejaVuSans-20ac" transform="translate(1202.628906 0)"/>
     <use xlink:href="#DejaVuSans-29" transform="translate(1266.251953 0)"/>
    </g>
   </g>
  </g>
 </g>
 <defs>
  <clipPath id="pb958cd79f3">
   <rect x="69.77" y="26.88" width="155.23" height="290.84"/>
  </clipPath>
  <clipPath id="p27d173336f">
   <rect x="294.77" y="26.88" width="155.23" height="290.84"/>
  </clipPath>
 </defs>
</svg>
